<svg width="105" height="101" viewBox="0 0 105 101" fill="none" xmlns="http://www.w3.org/2000/svg">
<path fill-rule="evenodd" clip-rule="evenodd" d="M28.343 0.626299C25.9513 1.94575 25.8554 2.31076 25.7223 10.5984C25.6481 15.219 25.7506 18.5454 25.9899 19.2714C27.2085 22.9738 32.68 23.7241 34.8612 20.4878C35.5212 19.5088 35.5789 18.7718 35.5789 11.2789C35.5789 3.78612 35.5212 3.04911 34.8612 2.07008C33.4911 0.03722 30.5801 -0.607377 28.343 0.626299ZM71.56 0.730685C69.2094 2.15119 69.026 2.90815 69.0257 11.2065C69.0249 16.7406 69.1524 18.8844 69.5288 19.6836C71.1454 23.116 76.1447 23.5781 78.2274 20.4878C78.8874 19.5088 78.9451 18.7718 78.9451 11.2789C78.9451 3.78612 78.8874 3.04911 78.2274 2.07008C76.8139 -0.027273 73.8121 -0.630315 71.56 0.730685ZM8.38579 8.1374C4.91061 9.12274 1.28256 12.6386 0.2844 15.9892C0.0517659 16.7688 -0.0437865 30.8027 0.0186902 54.8845L0.116815 92.56L0.902184 94.0965C1.8386 95.9279 4.00985 98.1792 5.85952 99.235C9.15903 101.119 7.49752 101.059 53.2584 100.961L95.3177 100.871L97.751 99.7872C100.583 98.5262 102.526 96.7238 103.889 94.0958L104.857 92.2275L104.957 55.1963C105.067 14.0774 105.157 15.7426 102.648 12.4258C101.279 10.6167 100.247 9.81854 97.6793 8.58021C96.1468 7.84153 95.5764 7.78136 89.1461 7.6793L82.2553 7.57026L82.252 13.8294L82.2483 20.0885L81.1513 21.8185C78.3512 26.2353 71.4777 26.7755 67.7816 22.8697C65.9941 20.9805 65.7173 19.6999 65.7173 13.3181V7.62212H52.487H39.2566L39.2478 12.858C39.2427 15.7376 39.0692 18.7671 38.8619 19.5899C37.7079 24.1752 32.2567 26.7742 27.6554 24.9332C25.4607 24.0552 24.3659 23.1662 23.3262 21.4183C22.6121 20.2182 22.5232 19.4812 22.4144 13.8553L22.2938 7.62212L16.1667 7.64539C11.9852 7.66102 9.51441 7.81726 8.38579 8.1374ZM99.712 64.1608V91.944L98.726 93.2913C98.1839 94.0327 97.1089 94.9941 96.3371 95.4279L94.9344 96.2168L53.222 96.3162C24.246 96.385 11.094 96.3062 10.148 96.0579C8.37991 95.5938 6.69782 94.2943 5.79705 92.6976C5.10062 91.4626 5.0782 90.5607 5.0782 63.8161V36.2091L52.3951 36.2936L99.712 36.378V64.1608ZM19.9425 48.6054C19.8429 48.8394 19.8069 51.8689 19.862 55.3373L19.9623 61.6433L27.4044 61.7334L34.8465 61.8231V55.0015V48.1795H27.4849C21.84 48.1795 20.0811 48.2789 19.9425 48.6054ZM44.9332 48.6054C44.8336 48.8394 44.7976 51.8689 44.8527 55.3373L44.953 61.6433L52.3951 61.7334L59.8372 61.8231V55.0015V48.1795H52.4756C46.8306 48.1795 45.0717 48.2789 44.9332 48.6054ZM70.0326 48.4289C69.9562 48.5658 69.9051 51.5953 69.9191 55.1607L69.9437 61.6433L77.3858 61.7334L84.8278 61.8231V55.0015V48.1795H77.4993C73.4685 48.1795 70.1087 48.2919 70.0326 48.4289ZM19.9425 71.2112C19.8429 71.4452 19.8069 74.4747 19.862 77.943L19.9623 84.249L27.4044 84.3391L34.8465 84.4289V77.6073V70.7853H27.4849C21.84 70.7853 20.0811 70.8847 19.9425 71.2112ZM44.9332 71.2112C44.8336 71.4452 44.7976 74.4747 44.8527 77.943L44.953 84.249L52.3951 84.3391L59.8372 84.4289V77.6073V70.7853H52.4756C46.8306 70.7853 45.0717 70.8847 44.9332 71.2112ZM69.9518 71.2008C69.868 71.4296 69.8316 74.4587 69.8713 77.9327L69.9437 84.249L77.3858 84.3391L84.8278 84.4289V77.6073V70.7853H77.4662C71.9033 70.7853 70.0672 70.8867 69.9518 71.2008Z" fill="url(#paint0_linear_10_71)"/>
<defs>
<linearGradient id="paint0_linear_10_71" x1="52.5" y1="0" x2="52.5" y2="101" gradientUnits="userSpaceOnUse">
<stop stop-color="#63DDC0"/>
<stop offset="0.479167" stop-color="#8383A3"/>
<stop offset="1" stop-color="#DD6381"/>
</linearGradient>
</defs>
</svg>
