<svg width="105" height="101" viewBox="0 0 105 101" fill="none" xmlns="http://www.w3.org/2000/svg">
<path fill-rule="evenodd" clip-rule="evenodd" d="M66.9062 0.625104C65.0564 1.47964 63.5828 3.12931 63.1073 4.87818C62.9034 5.6291 62.7363 8.8223 62.7363 11.9741V17.7047L60.1614 15.1695C55.869 10.9427 50.5415 8.20281 44.391 7.0589C40.2651 6.29156 28.0297 6.54176 25.0223 7.45505C20.175 8.92718 14.9782 12.3535 12.4336 15.7546C11.7802 16.6281 10.7836 17.3834 9.48152 17.9922C5.80367 19.712 3.58926 22.1489 2.33932 25.8526C1.6869 27.7847 1.65689 28.396 1.87959 35.2373C2.10673 42.2075 2.08592 42.5977 1.44407 43.451C-0.540476 46.0885 -0.471925 49.8377 1.60266 52.1214C3.00709 53.6674 4.82555 54.2828 8.0157 54.2907L10.7611 54.2977L11.5455 55.7982C11.977 56.6237 13.0052 58.1774 13.8302 59.2508C14.6555 60.3246 15.3308 61.2796 15.3308 61.3731C15.3308 61.4666 13.7078 63.6119 11.7242 66.1402C7.59485 71.4029 8.45156 69.2206 3.42726 87.2798C0.587365 97.4878 0.392969 98.3808 0.811774 99.309C1.07233 99.8868 1.67905 100.471 2.24383 100.687C2.98185 100.97 10.8266 101.042 34.0311 100.979L64.8385 100.894L65.8787 99.8157L66.9189 98.7375L66.6825 94.2873C66.2821 86.7541 65.2587 83.6118 63.1431 83.42C61.5869 83.2791 61.237 84.2632 62.1098 86.3261C62.7816 87.9138 63.3942 92.4345 63.4095 95.9187L63.4184 97.8931H59.6669H55.9153V94.8711C55.9153 91.4027 55.6142 90.6272 54.2664 90.6272C52.7133 90.6272 52.5049 91.102 52.5049 94.6392V97.8931H35.0887C18.6622 97.8931 17.682 97.8618 17.847 97.3402C17.9432 97.036 18.7341 94.2285 19.6041 91.101C20.4745 87.9736 21.3008 85.0593 21.4407 84.6249C21.6913 83.8462 21.7578 83.8326 26.2716 83.6522C28.7888 83.5515 31.2809 83.3025 31.8092 83.0991C32.3947 82.8735 33.4793 82.8062 34.5856 82.9266C38.0513 83.3038 43.4399 81.7562 46.4888 79.5078L47.8053 78.537L50.9859 79.0267C52.7351 79.2962 55.0832 79.898 56.2035 80.3636C58.4149 81.2829 59.4776 81.2226 59.7774 80.1611C60.0574 79.1685 59.718 78.6767 58.1775 77.8446C56.591 76.9878 53.8827 76.2808 50.1496 75.7495C48.1886 75.4702 47.4451 75.2112 46.8244 74.5907C45.7296 73.4967 45.8057 73.1486 47.4492 71.7286C48.7629 70.5935 48.885 70.349 49.0235 68.5786L49.1732 66.6592L51.0387 65.5118C54.6194 63.3096 58.1512 59.6008 60.1382 55.9562L61.0426 54.2977H63.094C66.3882 54.2977 68.3639 53.3035 69.6271 51.011C70.6601 49.136 70.4102 45.4099 69.1309 43.6193C68.3922 42.5854 68.193 41.9365 68.193 40.5623V38.8182H71.7058C73.9833 38.8182 75.3625 38.9515 75.6278 39.1972C75.8843 39.4348 76.0371 40.6154 76.0371 42.3563C76.0371 45.5322 76.5568 46.4 78.4585 46.4C79.7074 46.4 80.6109 45.6102 83.9691 41.5824L86.2736 38.8182L92.8364 38.8112C100.246 38.8033 101.255 38.5803 103.209 36.5183C104.977 34.6538 105.087 33.5188 104.965 18.442L104.856 4.85796L104.003 3.45027C103.534 2.6763 102.485 1.61011 101.672 1.08096L100.193 0.119334L84.2785 0.0356181C68.6306 -0.0465182 68.339 -0.0367247 66.9062 0.625104ZM99.7855 3.41584C101.62 4.53163 101.616 4.48962 101.616 19.3752C101.616 31.273 101.542 33.2945 101.081 34.12C100.182 35.7311 98.9738 35.975 91.8896 35.975C87.115 35.975 85.3255 36.0843 84.6315 36.4185C84.125 36.6621 82.7898 38.0063 81.6644 39.4054C80.5389 40.8043 79.5031 41.9554 79.3623 41.963C79.2214 41.9709 79.1055 41.2307 79.1041 40.3187C79.1017 38.5016 78.345 37.0961 76.9954 36.4024C76.5043 36.15 74.9014 35.9933 72.7399 35.986C70.8324 35.98 69.0293 35.8887 68.7326 35.7832C68.3458 35.6458 68.193 35.1681 68.193 34.0959C68.193 31.7481 67.4864 27.4786 66.7859 25.592C66.218 24.064 66.1467 22.8439 66.1481 14.6805C66.1491 6.10107 66.1938 5.42218 66.8196 4.47161C67.2186 3.86506 67.8735 3.37477 68.4382 3.25915C68.96 3.15237 69.5402 3.01053 69.7277 2.94387C69.9153 2.87722 76.5913 2.85637 84.5633 2.89807C96.312 2.95904 99.1955 3.05729 99.7855 3.41584ZM80.5594 8.0041C79.2392 8.57337 78.5107 9.15685 77.7713 10.2369C75.9129 12.9512 76.0623 15.4409 78.0834 15.4409C79.1846 15.4409 79.7886 14.7295 79.7886 13.4324C79.7886 13.0002 80.1822 12.213 80.663 11.6835C83.1691 8.92497 87.9737 10.4789 87.9737 14.0481C87.9737 15.1926 87.7677 15.6583 86.8537 16.5823C85.9349 17.5111 85.4288 17.7445 84.0401 17.8816C81.4178 18.14 81.1528 18.5096 81.1528 21.9057C81.1528 24.8623 81.4123 25.5863 82.6101 25.9727C83.7795 26.3496 84.5633 25.1292 84.5633 22.9302V20.9425L86.0789 20.5668C89.2697 19.7764 91.6553 16.502 91.2648 13.4488C90.6342 8.51524 85.4677 5.88751 80.5594 8.0041ZM22.59 27.7642C25.701 30.6285 27.9454 31.6834 30.5111 31.4862C31.9347 31.3769 32.6891 31.115 33.6617 30.3935L34.941 29.4445L38.5162 30.6901C43.1012 32.2877 46.1266 32.9808 51.7808 33.7285C57.1506 34.439 57.697 34.7647 58.5032 37.7349C59.3262 40.7676 59.5229 47.728 58.8555 50.1909C57.8511 53.8981 55.7649 57.3184 52.8776 59.9932C51.4528 61.3128 49.5664 62.7839 48.6858 63.2619C47.2708 64.0299 46.9932 64.083 46.2989 63.7162C45.6904 63.3946 43.4978 63.3248 36.561 63.4066C26.8005 63.5213 26.9359 63.5488 28.4106 61.7512C29.7185 60.1572 30.3369 58.8243 30.3369 57.5992C30.3369 54.8559 27.9857 52.7172 24.9722 52.7194C22.7649 52.721 21.486 53.5145 19.3787 56.1903C18.4193 57.4081 17.5145 58.4045 17.3682 58.4045C16.99 58.4045 14.8677 55.3531 14.0648 53.6548C12.3893 50.1097 12.0008 45.112 12.9312 39.062C13.3712 36.2027 13.3619 35.9459 12.7985 35.3691C12.2266 34.7837 12.2242 34.6617 12.7593 33.17C13.2317 31.8524 13.4772 31.5744 14.2405 31.4925C14.9072 31.4208 15.4563 30.9659 16.2649 29.8148C18.4088 26.7621 19.4131 25.55 19.7975 25.55C20.011 25.55 21.2677 26.5464 22.59 27.7642ZM81.4318 29.1829C80.8332 30.3998 81.5269 31.5523 82.858 31.5523C84.1891 31.5523 84.8828 30.3998 84.2843 29.1829C83.9937 28.5925 83.6339 28.3932 82.858 28.3932C82.0821 28.3932 81.7223 28.5925 81.4318 29.1829ZM26.6682 43.2905C26.4349 43.5066 26.2443 44.3573 26.2443 45.1815C26.2443 46.9127 27.1297 47.8051 28.4151 47.3698C29.458 47.0169 29.9583 45.0352 29.2861 43.9207C28.7281 42.9957 27.3455 42.6631 26.6682 43.2905ZM50.5268 43.3041C50.3017 43.5126 50.1176 44.3573 50.1176 45.1815C50.1176 46.3491 50.2768 46.7835 50.8389 47.148C52.1816 48.0193 53.528 47.0065 53.528 45.125C53.528 43.3578 51.6795 42.2363 50.5268 43.3041ZM8.97472 46.7948C9.09818 48.2281 9.29258 49.7922 9.40615 50.2698L9.61248 51.1386L7.44138 51.1285C4.37366 51.1143 3.39418 50.2367 3.39418 47.5022C3.39418 46.3023 3.57561 45.8673 4.39106 45.112C5.22321 44.3412 5.66589 44.1886 7.06896 44.1886H8.74963L8.97472 46.7948ZM66.0424 44.9509C66.8987 45.6333 66.9994 45.9185 66.9994 47.6636C66.9994 49.4087 66.8987 49.6939 66.0424 50.3763C65.3511 50.9273 64.6779 51.1386 63.6158 51.1386H62.1459L62.4263 49.796C62.5804 49.0574 62.7131 47.494 62.7213 46.321L62.7363 44.1886H63.9108C64.6608 44.1886 65.4316 44.4641 66.0424 44.9509ZM37.8378 51.1177C35.1402 51.8778 34.0321 53.0198 34.7636 54.2857C35.2032 55.047 36.5797 55.1228 37.8399 54.4556C38.9943 53.8444 40.7473 53.8684 42.7162 54.522C44.7519 55.1977 45.5134 54.8701 45.5134 53.3184C45.5134 52.3191 45.3917 52.2042 43.6377 51.5461C41.7558 50.8397 39.4333 50.6682 37.8378 51.1177ZM25.9203 56.0434C27.4301 56.7665 27.2579 57.8684 25.2126 60.5656C23.1183 63.3282 22.8577 64.264 23.8549 65.4385L24.5885 66.3022H34.4697H44.3508L45.1877 67.0778C46.2034 68.0182 46.2429 68.6276 45.3429 69.4613C44.7331 70.0261 44.2062 70.0931 40.3715 70.0931C36.0855 70.0931 36.0814 70.0938 35.0852 71.0165C34.1835 71.8518 34.0867 72.1459 34.0693 74.0966C34.044 76.912 33.5267 78.1876 31.9255 79.3824L30.6148 80.3602L25.3296 80.5181C20.1917 80.6716 20.024 80.6985 19.3074 81.4766C18.7989 82.0291 17.8931 84.695 16.3829 90.0851L14.1951 97.8931H9.1357C4.92309 97.8931 4.07627 97.8157 4.07627 97.4309C4.07627 96.9627 5.51549 91.7291 9.1299 79.0558L11.1233 72.0647L16.723 64.8727C22.0426 58.0396 24.1608 55.5613 24.6816 55.5613C24.8095 55.5613 25.3668 55.7783 25.9203 56.0434ZM43.3819 75.1262C43.8975 76.1532 44.3198 77.0832 44.3198 77.1928C44.3198 77.6269 39.8752 79.2854 38.227 79.4661C37.2639 79.572 36.4774 79.6029 36.4794 79.5353C36.4815 79.4677 36.7117 78.7146 36.991 77.8616C37.2703 77.0087 37.4988 75.6228 37.4988 74.7815V73.2522L39.9714 73.2554L42.444 73.2588L43.3819 75.1262Z" fill="url(#paint0_linear_10_79)"/>
<defs>
<linearGradient id="paint0_linear_10_79" x1="52.5" y1="0" x2="52.5" y2="101" gradientUnits="userSpaceOnUse">
<stop stop-color="#63DDC0"/>
<stop offset="0.5" stop-color="#8383A3"/>
<stop offset="0.979167" stop-color="#DD6381"/>
</linearGradient>
</defs>
</svg>
