<svg width="105" height="101" viewBox="0 0 105 101" fill="none" xmlns="http://www.w3.org/2000/svg">
<path fill-rule="evenodd" clip-rule="evenodd" d="M66.9309 0.339511C66.2767 0.574942 65.2408 1.06856 64.6287 1.43671C64.017 1.80455 49.5815 15.5151 32.5505 31.9046C11.0089 52.6341 1.35116 62.1364 0.818694 63.1255C-0.262681 65.1341 -0.274848 69.0097 0.794358 70.9478C1.7399 72.6619 9.7999 80.4285 10.9112 80.6965C11.3838 80.8106 12.531 80.6627 13.539 80.3581C18.7413 78.7859 23.0451 82.9212 21.4089 87.92C21.0892 88.8964 20.9379 89.9895 21.0583 90.4512C21.177 90.9063 23.2151 93.1257 25.6913 95.4967C29.4541 99.0996 30.3954 99.8324 32.0145 100.42C34.5232 101.33 37.2773 101.163 39.5742 99.962C41.8235 98.7858 103.078 39.8893 104.179 37.8444C105.278 35.8036 105.273 31.9624 104.169 29.9586C103.117 28.0489 95.369 20.5597 94.1557 20.28C93.6206 20.1568 92.6379 20.2512 91.8535 20.5012C86.2546 22.2864 81.8459 18.0502 83.7037 12.6704C83.9639 11.9167 84.0622 10.9724 83.9339 10.4583C83.6383 9.27386 75.8154 1.82162 73.8612 0.86283C72.0582 -0.0220092 68.6513 -0.278928 66.9309 0.339511ZM74.1065 8.85483L77.1984 11.7824L77.2641 15.0961C77.3217 18.0177 77.4391 18.6241 78.2564 20.2231C79.4374 22.5341 81.588 24.6005 83.9931 25.7354C85.6573 26.5206 86.2884 26.6335 89.329 26.6888L92.7777 26.752L95.8245 29.7228C98.5953 32.4241 98.8716 32.803 98.8716 33.8993C98.8716 35.0123 98.5868 35.381 95.1716 38.6922L91.4717 42.2796L76.2522 27.6491L61.0327 13.0183L64.7731 9.47263C68.2175 6.20726 68.6122 5.92696 69.7639 5.92696C70.8999 5.92696 71.2985 6.19557 74.1065 8.85483ZM67.7173 65.0933L48.4025 83.6541L47.2438 82.5916C44.9972 80.5306 43.4679 80.2866 41.9491 81.746C40.4569 83.1797 40.6069 84.5664 42.4599 86.4698L43.9323 87.9822L40.2083 91.5127C36.7797 94.7629 36.385 95.0429 35.2336 95.0429C34.0976 95.0429 33.699 94.7743 30.891 92.115L27.7991 89.1875L27.7334 85.8738C27.6758 82.9522 27.5584 82.3458 26.7411 80.7468C24.4041 76.1737 19.2968 73.5353 14.0373 74.1838L12.3813 74.3879L9.25362 71.3292C6.41172 68.5499 6.12592 68.1609 6.12592 67.0716C6.12592 65.9687 6.4206 65.5857 9.79989 62.2944L13.4742 58.7162L15.0482 60.1309C17.0291 61.9114 18.4723 62.0555 19.9644 60.6217C21.4812 59.1643 21.1418 57.3763 18.9718 55.3939L17.9457 54.4563L37.2766 35.88L56.6075 17.3038L71.8198 31.9182L87.032 46.5325L67.7173 65.0933ZM55.1936 39.5825C53.3881 40.886 51.7019 41.9526 51.447 41.9526C51.1921 41.9526 49.4454 41.4548 47.5655 40.8465C43.6133 39.5676 42.7118 39.4987 41.5377 40.3861C40.104 41.4697 40.1254 42.6219 41.6567 46.7677L43.0259 50.4755L40.527 53.7705C37.9614 57.1532 37.5664 58.2308 38.3665 59.6667C39.0931 60.9715 40.4944 61.3062 44.7223 61.1849L48.6787 61.0714L51.1895 64.3848C54.0392 68.1451 54.948 68.6836 56.9203 67.7798C58.1115 67.234 58.3621 66.7347 59.9191 61.802L60.7857 59.0562L64.6178 57.9012C68.5951 56.7019 69.4692 56.2193 69.9774 54.9426C70.6091 53.3543 69.8096 52.2843 66.1557 49.8286L62.7419 47.5343L62.636 43.1351C62.5304 38.7608 62.5245 38.7321 61.6069 37.9743C59.9839 36.634 58.9025 36.9052 55.1936 39.5825ZM56.4526 48.1938C56.4608 50.1778 56.8364 50.83 58.6654 52.0356C59.2531 52.4231 59.7342 52.8541 59.7342 52.9935C59.7342 53.1328 59.0643 53.427 58.2454 53.6473C56.5092 54.1147 55.2528 55.38 54.9411 56.9759C54.823 57.581 54.6132 58.1435 54.475 58.2257C54.3366 58.3079 53.8255 57.7972 53.3394 57.0912C52.2823 55.5566 50.5869 54.7755 48.8106 55.0046C48.1259 55.0927 47.5655 55.0352 47.5655 54.8763C47.5655 54.7176 48.0095 53.9987 48.5521 53.2788C49.669 51.7977 49.7486 51.1356 49.0418 49.2114C48.7685 48.4672 48.6235 47.783 48.7192 47.6911C48.8149 47.5991 49.6638 47.7606 50.6057 48.05C52.2537 48.5566 52.3698 48.5522 53.6972 47.9347C54.4559 47.582 55.2548 47.0868 55.4725 46.835C56.1915 46.0026 56.4454 46.3546 56.4526 48.1938ZM24.5182 64.9973C23.7936 65.6934 23.5568 66.2161 23.5568 67.1193C23.5568 68.2452 23.8709 68.6197 28.7483 73.3059C33.6253 77.9924 34.0151 78.2942 35.1869 78.2942C37.4957 78.2942 39.0125 76.0189 37.9923 74.0861C37.4707 73.098 29.1555 65.0658 28.0955 64.5258C26.7125 63.8217 25.5874 63.9699 24.5182 64.9973Z" fill="url(#paint0_linear_10_67)"/>
<defs>
<linearGradient id="paint0_linear_10_67" x1="52.5" y1="0" x2="52.5" y2="101" gradientUnits="userSpaceOnUse">
<stop stop-color="#63DDC0"/>
<stop offset="0.5" stop-color="#8383A3"/>
<stop offset="1" stop-color="#DD6381"/>
</linearGradient>
</defs>
</svg>
