<svg width="511" height="482" viewBox="0 0 511 482" fill="none" xmlns="http://www.w3.org/2000/svg">
<path fill-rule="evenodd" clip-rule="evenodd" d="M249.506 2.38061C248.782 3.66055 248.315 7.96015 248.467 11.9367C248.737 18.9769 248.616 19.2988 243.846 24.1949C238.694 29.4841 236.734 35.0241 238.139 40.3235C239.252 44.5192 245.121 49.3599 250.184 50.2591C252.527 50.6749 254.718 51.6882 255.051 52.5095C256.077 55.04 253.762 61.3222 251.214 62.923C249.158 64.2142 248.453 64.1747 246.485 62.6575C244.69 61.2725 244.613 61.0036 246.145 61.4532C247.23 61.7718 249.034 61.3979 250.155 60.6229C254.261 57.7817 249.452 51.2262 245.147 53.7962C237.549 58.3308 242.434 68.3556 251.225 66.268C254.95 65.3834 257.901 60.3258 257.901 54.8253C257.901 51.6182 258.801 49.936 262.079 47.0101C265.317 44.1204 266.258 42.3852 266.258 39.3034C266.258 34.2119 263.134 30.589 257.872 29.5779C252.366 28.5205 251.757 24.5553 256.141 18.2878C259.793 13.0652 261.161 5.96738 259.187 2.47663C257.346 -0.779134 251.327 -0.839008 249.506 2.38061ZM257.303 5.69851C257.766 7.08012 257.003 9.73037 255.334 12.5422C253.057 16.373 252.468 16.7932 251.757 15.0885C250.349 11.7085 250.633 8.60633 252.597 5.95495C254.897 2.84604 256.32 2.76809 257.303 5.69851ZM21.5159 6.26787C21.5159 7.45179 22.7766 7.96241 25.6944 7.96241C28.6122 7.96241 29.8729 7.45179 29.8729 6.26787C29.8729 5.08396 28.6122 4.57334 25.6944 4.57334C22.7766 4.57334 21.5159 5.08396 21.5159 6.26787ZM154.632 10.0625L139.111 13.046L138.781 29.1441C138.45 45.1721 138.437 45.2422 135.66 45.2422C132.324 45.2422 126.576 50.3439 126.576 53.3037C126.576 54.4616 127.706 56.4792 129.088 57.7863C132.139 60.6738 137.551 60.049 141.74 56.3244C144.37 53.9871 144.484 53.1704 144.484 36.6532V19.4197L151.349 18.1556C155.124 17.4608 160.477 16.4735 163.243 15.9629C166.008 15.4511 168.56 15.3054 168.914 15.6398C169.266 15.973 169.555 21.2453 169.555 27.3558C169.555 36.6351 169.251 38.464 167.704 38.464C164.24 38.464 158.711 41.9537 157.533 44.8841C154.605 52.1706 165.108 56.3312 171.399 50.3766C174.295 47.6383 174.33 47.3558 174.33 27.218C174.33 8.50918 174.159 6.84289 172.241 6.95585C171.091 7.02364 163.168 8.42106 154.632 10.0625ZM349.828 20.389C349.828 33.8899 349.816 33.9453 347.005 33.9453C340.115 33.9453 334.924 42.5309 340.199 45.2026C343.785 47.0181 346.105 46.6091 349.285 43.5985C352.079 40.9561 352.216 40.1755 352.216 26.9615V13.0968L355.32 16.0352C357.029 17.6506 358.853 20.6895 359.377 22.7873L360.328 26.6023L360.451 22.6585C360.539 19.8467 359.332 17.0078 356.249 12.7738C353.871 9.50557 351.453 6.83272 350.877 6.83272C350.3 6.83272 349.828 12.933 349.828 20.389ZM449.748 7.55459C448.634 8.60972 449.979 10.2218 451.974 10.2218C452.921 10.2218 453.695 9.45925 453.695 8.52725C453.695 6.82594 451.174 6.20461 449.748 7.55459ZM21.5159 12.5523C21.5159 14.5011 22.151 14.8253 25.3864 14.5293C27.9353 14.2966 29.3918 13.5013 29.6521 12.1987C29.9696 10.6149 29.1996 10.2218 25.7816 10.2218C22.268 10.2218 21.5159 10.633 21.5159 12.5523ZM366.841 11.3865C364.236 12.3772 364.155 12.8822 364.155 28.1195V43.8301L360.61 44.5011C355.093 45.5449 352.014 49.1441 352.447 54.0413C352.738 57.3457 353.448 58.4031 355.929 59.2221C360.055 60.5868 364.893 59.3328 368.436 55.9799C371.21 53.3545 371.318 52.6586 371.318 37.2993V21.3458L374.269 24.6637C378.052 28.9193 379.921 33.6007 379.047 36.6362C378.372 38.9781 378.396 38.9826 380.21 36.8362C383.635 32.7828 382.509 27.3931 376.392 18.5555C373.272 14.0492 370.452 10.363 370.124 10.3641C369.796 10.3641 368.319 10.825 366.841 11.3865ZM490.704 11.9163C490.704 12.8574 491.766 13.6109 493.092 13.6109C494.418 13.6109 495.48 12.8574 495.48 11.9163C495.48 10.9753 494.418 10.2218 493.092 10.2218C491.766 10.2218 490.704 10.9753 490.704 11.9163ZM448.919 35.6398C448.919 58.045 448.997 58.7985 451.307 58.7985C453.617 58.7985 453.695 58.045 453.695 35.6398C453.695 13.2347 453.617 12.4812 451.307 12.4812C448.997 12.4812 448.919 13.2347 448.919 35.6398ZM21.5159 18.1296C21.5159 19.9586 22.3122 20.389 25.6944 20.389C29.0766 20.389 29.8729 19.9586 29.8729 18.1296C29.8729 16.3007 29.0766 15.8702 25.6944 15.8702C22.3122 15.8702 21.5159 16.3007 21.5159 18.1296ZM32.2607 18.0584C32.2607 19.9778 33.0128 20.389 36.5263 20.389C39.9444 20.389 40.7144 19.9959 40.3968 18.412C40.1366 17.1095 38.6801 16.3142 36.1312 16.0815C32.8958 15.7855 32.2607 16.1097 32.2607 18.0584ZM490.704 37.3344C490.704 58.045 490.788 58.7985 493.092 58.7985C495.396 58.7985 495.48 58.045 495.48 37.3344C495.48 16.6237 495.396 15.8702 493.092 15.8702C490.788 15.8702 490.704 16.6237 490.704 37.3344ZM440.562 21.5187C440.562 22.14 441.636 22.6484 442.95 22.6484C444.263 22.6484 445.337 22.14 445.337 21.5187C445.337 20.8974 444.263 20.389 442.95 20.389C441.636 20.389 440.562 20.8974 440.562 21.5187ZM482.347 22.6484C482.347 23.2697 483.422 23.7781 484.735 23.7781C486.048 23.7781 487.123 23.2697 487.123 22.6484C487.123 22.0271 486.048 21.5187 484.735 21.5187C483.422 21.5187 482.347 22.0271 482.347 22.6484ZM10.7711 24.3429C10.7711 25.5268 12.0318 26.0375 14.9496 26.0375C17.8674 26.0375 19.1282 25.5268 19.1282 24.3429C19.1282 23.159 17.8674 22.6484 14.9496 22.6484C12.0318 22.6484 10.7711 23.159 10.7711 24.3429ZM21.5159 24.3429C21.5159 25.5268 22.7766 26.0375 25.6944 26.0375C28.6122 26.0375 29.8729 25.5268 29.8729 24.3429C29.8729 23.159 28.6122 22.6484 25.6944 22.6484C22.7766 22.6484 21.5159 23.159 21.5159 24.3429ZM32.2607 24.3429C32.2607 25.5268 33.5214 26.0375 36.4392 26.0375C39.357 26.0375 40.6177 25.5268 40.6177 24.3429C40.6177 23.159 39.357 22.6484 36.4392 22.6484C33.5214 22.6484 32.2607 23.159 32.2607 24.3429ZM52.5563 24.3429C52.5563 25.5268 53.8171 26.0375 56.7349 26.0375C59.6527 26.0375 60.9134 25.5268 60.9134 24.3429C60.9134 23.159 59.6527 22.6484 56.7349 22.6484C53.8171 22.6484 52.5563 23.159 52.5563 24.3429ZM125.875 24.8434C119.974 26.1775 119.413 26.9276 119.413 33.4753C119.413 39.0221 119.109 39.7587 116.428 40.7234C114.58 41.3888 113.443 42.6823 113.443 44.1204C113.443 47.0316 116.076 48.0619 119.32 46.4193C121.435 45.3472 121.8 44.0967 121.8 37.9263C121.8 33.9464 122.204 30.4636 122.696 30.1879C123.188 29.9123 125.874 29.3294 128.665 28.8922L133.739 28.098V32.4484C133.739 35.8759 133.17 37.035 131.053 37.9139C127.833 39.2503 127.464 43.3522 130.513 43.908C134.811 44.6909 136.127 42.0587 136.127 32.6778V23.7781L132.844 23.8933C131.037 23.9577 127.902 24.3847 125.875 24.8434ZM465.633 24.9078C465.633 25.5291 466.708 26.0375 468.021 26.0375C469.334 26.0375 470.409 25.5291 470.409 24.9078C470.409 24.2864 469.334 23.7781 468.021 23.7781C466.708 23.7781 465.633 24.2864 465.633 24.9078ZM440.562 41.8531C440.562 58.045 440.668 58.7985 442.95 58.7985C445.231 58.7985 445.337 58.045 445.337 41.8531C445.337 25.6613 445.231 24.9078 442.95 24.9078C440.668 24.9078 440.562 25.6613 440.562 41.8531ZM250.738 28.1217C250.738 29.2684 249.663 31.1267 248.35 32.2507C247.037 33.3748 245.962 35.3461 245.962 36.6306C245.962 38.917 246.002 38.9137 247.821 36.4566C248.843 35.075 250.142 33.9453 250.707 33.9453C251.594 33.9453 254.319 43.3613 254.319 46.4272C254.319 48.5782 248.441 47.4281 244.86 44.5768C239.999 40.7065 239.763 34.5903 244.278 29.5135C247.741 25.6183 250.738 24.9722 250.738 28.1217ZM482.347 42.418C482.347 58.045 482.457 58.7985 484.735 58.7985C487.013 58.7985 487.123 58.045 487.123 42.418C487.123 26.791 487.013 26.0375 484.735 26.0375C482.457 26.0375 482.347 26.791 482.347 42.418ZM10.7711 29.9914C10.7711 31.1753 12.0318 31.6859 14.9496 31.6859C17.8674 31.6859 19.1282 31.1753 19.1282 29.9914C19.1282 28.8075 17.8674 28.2968 14.9496 28.2968C12.0318 28.2968 10.7711 28.8075 10.7711 29.9914ZM21.5159 29.9914C21.5159 31.1753 22.7766 31.6859 25.6944 31.6859C28.6122 31.6859 29.8729 31.1753 29.8729 29.9914C29.8729 28.8075 28.6122 28.2968 25.6944 28.2968C22.7766 28.2968 21.5159 28.8075 21.5159 29.9914ZM32.2607 29.9914C32.2607 31.1753 33.5214 31.6859 36.4392 31.6859C39.357 31.6859 40.6177 31.1753 40.6177 29.9914C40.6177 28.8075 39.357 28.2968 36.4392 28.2968C33.5214 28.2968 32.2607 28.8075 32.2607 29.9914ZM41.8116 29.9236C41.8116 31.2329 43.0651 31.6859 46.6861 31.6859C52.9073 31.6859 52.4943 29.0142 46.1966 28.5115C42.861 28.2449 41.8116 28.5826 41.8116 29.9236ZM52.5563 29.9914C52.5563 31.1753 53.8171 31.6859 56.7349 31.6859C59.6527 31.6859 60.9134 31.1753 60.9134 29.9914C60.9134 28.8075 59.6527 28.2968 56.7349 28.2968C53.8171 28.2968 52.5563 28.8075 52.5563 29.9914ZM465.633 43.5477C465.633 58.045 465.751 58.7985 468.021 58.7985C470.29 58.7985 470.409 58.045 470.409 43.5477C470.409 29.0503 470.29 28.2968 468.021 28.2968C465.751 28.2968 465.633 29.0503 465.633 43.5477ZM473.99 31.6859C473.99 32.3072 475.065 32.8156 476.378 32.8156C477.691 32.8156 478.766 32.3072 478.766 31.6859C478.766 31.0646 477.691 30.5562 476.378 30.5562C475.065 30.5562 473.99 31.0646 473.99 31.6859ZM0.623268 35.075C-0.63387 37 1.20229 38.464 4.87223 38.464C7.58707 38.464 8.38338 37.9523 8.38338 36.2047C8.38338 34.457 7.58707 33.9453 4.87223 33.9453C2.94056 33.9453 1.02918 34.4536 0.623268 35.075ZM10.7711 36.2047C10.7711 38.0336 11.5674 38.464 14.9496 38.464C18.3318 38.464 19.1282 38.0336 19.1282 36.2047C19.1282 34.3757 18.3318 33.9453 14.9496 33.9453C11.5674 33.9453 10.7711 34.3757 10.7711 36.2047ZM21.5159 36.2047C21.5159 38.0336 22.3122 38.464 25.6944 38.464C29.0766 38.464 29.8729 38.0336 29.8729 36.2047C29.8729 34.3757 29.0766 33.9453 25.6944 33.9453C22.3122 33.9453 21.5159 34.3757 21.5159 36.2047ZM32.2607 36.2758C32.2607 38.2246 32.8958 38.5488 36.1312 38.2528C38.6801 38.0201 40.1366 37.2248 40.3968 35.9222C40.7144 34.3384 39.9444 33.9453 36.5263 33.9453C33.0128 33.9453 32.2607 34.3565 32.2607 36.2758ZM42.0241 35.8488C42.3321 37.3615 43.5319 37.8992 46.6037 37.8992C52.6745 37.8992 52.3104 34.6299 46.1859 34.1543C42.3011 33.8515 41.6695 34.108 42.0241 35.8488ZM52.5563 36.2047C52.5563 38.0336 53.3526 38.464 56.7349 38.464C60.1171 38.464 60.9134 38.0336 60.9134 36.2047C60.9134 34.3757 60.1171 33.9453 56.7349 33.9453C53.3526 33.9453 52.5563 34.3757 52.5563 36.2047ZM260.05 35.3009C262.076 37.218 261.83 43.5635 259.663 45.2648C257.359 47.0745 257.3 46.9921 255.862 39.8762C254.805 34.6525 254.898 33.9453 256.64 33.9453C257.728 33.9453 259.262 34.5553 260.05 35.3009ZM457.276 36.2047C457.276 36.826 458.351 37.3344 459.664 37.3344C460.977 37.3344 462.052 36.826 462.052 36.2047C462.052 35.5833 460.977 35.075 459.664 35.075C458.351 35.075 457.276 35.5833 457.276 36.2047ZM473.99 46.9367C473.99 58.045 474.142 58.7985 476.378 58.7985C478.614 58.7985 478.766 58.045 478.766 46.9367C478.766 35.8285 478.614 35.075 476.378 35.075C474.142 35.075 473.99 35.8285 473.99 46.9367ZM499.061 37.3344C499.061 37.9557 500.136 38.464 501.449 38.464C502.762 38.464 503.837 37.9557 503.837 37.3344C503.837 36.713 502.762 36.2047 501.449 36.2047C500.136 36.2047 499.061 36.713 499.061 37.3344ZM0.623268 40.7234C-0.63387 42.6484 1.20229 44.1125 4.87223 44.1125C7.58707 44.1125 8.38338 43.6007 8.38338 41.8531C8.38338 40.1055 7.58707 39.5937 4.87223 39.5937C2.94056 39.5937 1.02918 40.1021 0.623268 40.7234ZM11.5674 40.3472C9.44115 42.3581 11.017 44.1125 14.9496 44.1125C18.3318 44.1125 19.1282 43.6821 19.1282 41.8531C19.1282 40.1258 18.3318 39.5937 15.7459 39.5937C13.8847 39.5937 12.0044 39.9326 11.5674 40.3472ZM21.5159 41.7819C21.5159 43.7013 22.268 44.1125 25.7816 44.1125C29.1996 44.1125 29.9696 43.7194 29.6521 42.1355C29.3918 40.833 27.9353 40.0377 25.3864 39.805C22.151 39.509 21.5159 39.8332 21.5159 41.7819ZM32.2607 41.7819C32.2607 43.7013 33.0128 44.1125 36.5263 44.1125C39.9444 44.1125 40.7144 43.7194 40.3968 42.1355C40.1366 40.833 38.6801 40.0377 36.1312 39.805C32.8958 39.509 32.2607 39.8332 32.2607 41.7819ZM42.664 40.293C40.281 42.549 41.9775 44.2356 46.2886 43.8979C51.914 43.4573 52.5695 40.3258 47.141 39.8231C45.1472 39.6378 43.1332 39.8502 42.664 40.293ZM53.3526 40.3472C51.2264 42.3581 52.8023 44.1125 56.7349 44.1125C60.1171 44.1125 60.9134 43.6821 60.9134 41.8531C60.9134 40.1258 60.1171 39.5937 57.5312 39.5937C55.6699 39.5937 53.7896 39.9326 53.3526 40.3472ZM63.3011 41.8531C63.3011 43.6821 64.0974 44.1125 67.4796 44.1125C70.8618 44.1125 71.6582 43.6821 71.6582 41.8531C71.6582 40.0241 70.8618 39.5937 67.4796 39.5937C64.0974 39.5937 63.3011 40.0241 63.3011 41.8531ZM433.034 40.3156C431.92 41.3707 433.265 42.9828 435.26 42.9828C436.207 42.9828 436.98 42.2203 436.98 41.2883C436.98 39.587 434.46 38.9656 433.034 40.3156ZM457.276 49.1961C457.276 58.045 457.464 58.7985 459.664 58.7985C461.864 58.7985 462.052 58.045 462.052 49.1961C462.052 40.3472 461.864 39.5937 459.664 39.5937C457.464 39.5937 457.276 40.3472 457.276 49.1961ZM499.061 49.6785C499.061 58.1082 499.246 58.7985 501.499 58.7985C503.774 58.7985 503.914 58.2133 503.588 50.0558C503.298 42.7829 502.889 41.2487 501.151 40.9358C499.3 40.6014 499.061 41.6012 499.061 49.6785ZM432.205 52.0203C432.205 58.045 432.47 58.7985 434.593 58.7985C436.715 58.7985 436.98 58.045 436.98 52.0203C436.98 45.9957 436.715 45.2422 434.593 45.2422C432.47 45.2422 432.205 45.9957 432.205 52.0203ZM0.31764 47.784C1.08171 49.988 8.38338 50.3088 8.38338 48.1376C8.38338 46.8644 7.18952 46.3719 4.10577 46.3719C1.21781 46.3719 -0.0130604 46.8305 0.31764 47.784ZM10.7711 48.0664C10.7711 49.2503 12.0318 49.7609 14.9496 49.7609C17.8674 49.7609 19.1282 49.2503 19.1282 48.0664C19.1282 46.8825 17.8674 46.3719 14.9496 46.3719C12.0318 46.3719 10.7711 46.8825 10.7711 48.0664ZM21.5159 48.0664C21.5159 49.2503 22.7766 49.7609 25.6944 49.7609C28.6122 49.7609 29.8729 49.2503 29.8729 48.0664C29.8729 46.8825 28.6122 46.3719 25.6944 46.3719C22.7766 46.3719 21.5159 46.8825 21.5159 48.0664ZM32.2607 48.0664C32.2607 49.2503 33.5214 49.7609 36.4392 49.7609C39.357 49.7609 40.6177 49.2503 40.6177 48.0664C40.6177 46.8825 39.357 46.3719 36.4392 46.3719C33.5214 46.3719 32.2607 46.8825 32.2607 48.0664ZM41.8116 48.1342C41.8116 49.4751 42.861 49.8129 46.1966 49.5463C52.4943 49.0436 52.9073 46.3719 46.6861 46.3719C43.0651 46.3719 41.8116 46.8249 41.8116 48.1342ZM52.5563 48.0664C52.5563 49.2503 53.8171 49.7609 56.7349 49.7609C59.6527 49.7609 60.9134 49.2503 60.9134 48.0664C60.9134 46.8825 59.6527 46.3719 56.7349 46.3719C53.8171 46.3719 52.5563 46.8825 52.5563 48.0664ZM63.3011 48.0664C63.3011 49.2503 64.5618 49.7609 67.4796 49.7609C70.3974 49.7609 71.6582 49.2503 71.6582 48.0664C71.6582 46.8825 70.3974 46.3719 67.4796 46.3719C64.5618 46.3719 63.3011 46.8825 63.3011 48.0664ZM0.623268 53.15C-0.63387 55.075 1.20229 56.5391 4.87223 56.5391C7.58707 56.5391 8.38338 56.0273 8.38338 54.2797C8.38338 52.5321 7.58707 52.0203 4.87223 52.0203C2.94056 52.0203 1.02918 52.5287 0.623268 53.15ZM10.992 53.9973C11.2522 55.2998 12.7087 56.0951 15.2576 56.3278C18.493 56.6238 19.1282 56.2996 19.1282 54.3509C19.1282 52.4315 18.376 52.0203 14.8625 52.0203C11.4444 52.0203 10.6744 52.4135 10.992 53.9973ZM21.5159 54.3509C21.5159 56.2996 22.151 56.6238 25.3864 56.3278C27.9353 56.0951 29.3918 55.2998 29.6521 53.9973C29.9696 52.4135 29.1996 52.0203 25.7816 52.0203C22.268 52.0203 21.5159 52.4315 21.5159 54.3509ZM32.2607 54.2797C32.2607 56.3098 32.8624 56.6272 36.1407 56.3278C38.6275 56.1019 40.0208 55.3653 40.0208 54.2797C40.0208 53.1941 38.6275 52.4575 36.1407 52.2316C32.8624 51.9322 32.2607 52.2497 32.2607 54.2797ZM42.0241 53.9239C42.3321 55.4365 43.5319 55.9742 46.6037 55.9742C52.6745 55.9742 52.3104 52.7049 46.1859 52.2293C42.3011 51.9266 41.6695 52.183 42.0241 53.9239ZM52.7772 53.9973C53.0375 55.2998 54.494 56.0951 57.0429 56.3278C60.2782 56.6238 60.9134 56.2996 60.9134 54.3509C60.9134 52.4315 60.1612 52.0203 56.6477 52.0203C53.2297 52.0203 52.4596 52.4135 52.7772 53.9973ZM63.3011 54.3509C63.3011 56.2996 63.9362 56.6238 67.1716 56.3278C69.7205 56.0951 71.177 55.2998 71.4373 53.9973C71.7549 52.4135 70.9848 52.0203 67.5668 52.0203C64.0532 52.0203 63.3011 52.4315 63.3011 54.3509ZM0.623268 58.7985C-0.63387 60.7235 1.20229 62.1875 4.87223 62.1875C7.58707 62.1875 8.38338 61.6758 8.38338 59.9282C8.38338 58.1805 7.58707 57.6688 4.87223 57.6688C2.94056 57.6688 1.02918 58.1771 0.623268 58.7985ZM10.7711 59.9282C10.7711 61.7571 11.5674 62.1875 14.9496 62.1875C18.3318 62.1875 19.1282 61.7571 19.1282 59.9282C19.1282 58.0992 18.3318 57.6688 14.9496 57.6688C11.5674 57.6688 10.7711 58.0992 10.7711 59.9282ZM21.5159 59.9282C21.5159 61.7571 22.3122 62.1875 25.6944 62.1875C29.0766 62.1875 29.8729 61.7571 29.8729 59.9282C29.8729 58.0992 29.0766 57.6688 25.6944 57.6688C22.3122 57.6688 21.5159 58.0992 21.5159 59.9282ZM32.2607 59.857C32.2607 61.7763 33.0128 62.1875 36.5263 62.1875C39.9444 62.1875 40.7144 61.7944 40.3968 60.2106C40.1366 58.908 38.6801 58.1127 36.1312 57.88C32.8958 57.5841 32.2607 57.9083 32.2607 59.857ZM42.664 58.3681C40.281 60.624 41.9775 62.3107 46.2886 61.9729C51.914 61.5323 52.5695 58.4008 47.141 57.8981C45.1472 57.7128 43.1332 57.9252 42.664 58.3681ZM52.5563 59.9282C52.5563 61.7571 53.3526 62.1875 56.7349 62.1875C60.1171 62.1875 60.9134 61.7571 60.9134 59.9282C60.9134 58.0992 60.1171 57.6688 56.7349 57.6688C53.3526 57.6688 52.5563 58.0992 52.5563 59.9282ZM63.3011 59.9282C63.3011 61.7571 64.0974 62.1875 67.4796 62.1875C70.8618 62.1875 71.6582 61.7571 71.6582 59.9282C71.6582 58.0992 70.8618 57.6688 67.4796 57.6688C64.0974 57.6688 63.3011 58.0992 63.3011 59.9282ZM25.2933 96.8566C19.1317 99.7294 17.4138 103.192 16.7404 114.095C16.1721 123.296 16.0158 123.743 13.4573 123.487C11.3155 123.272 10.7711 123.787 10.7711 126.029C10.7711 127.574 11.3083 128.839 11.965 128.839C12.6323 128.839 13.1612 131.95 13.166 135.9C13.1696 139.784 13.7009 144.762 14.3479 146.964C15.8295 152.014 21.9337 157.677 28.1048 159.729C32.3323 161.136 32.8146 161.67 32.4684 164.562C32.2547 166.351 31.3032 168.226 30.3541 168.73C27.1915 170.411 29.941 171.767 36.5096 171.767C41.488 171.767 43.0054 171.372 43.0054 170.073C43.0054 169.141 42.2605 168.378 41.3495 168.378C38.8687 168.378 38.1118 161.548 40.5103 160.795C50.3035 157.719 57.4034 151.842 57.2805 146.914C57.2578 145.982 56.5224 146.745 55.6461 148.609C52.3104 155.712 45.5722 159.341 35.7169 159.341C28.4689 159.341 21.5314 156.214 17.8101 151.268C15.6612 148.412 14.989 145.708 14.5748 138.251C14.2142 131.738 14.4673 128.839 15.3973 128.839C16.276 128.839 16.7416 131.863 16.7452 137.594C16.75 148.308 19.1532 152.788 26.6149 155.992C35.6608 159.879 45.3752 158.278 51.2646 151.931C54.7113 148.217 54.9441 147.4 54.9441 139.034C54.9441 127.496 57.2458 125.677 57.5658 136.963L57.7998 145.22L58.2176 137.594C58.4469 133.4 59.0844 129.969 59.6348 129.969C61.0411 129.969 61.9891 125.966 60.9564 124.386C60.4836 123.663 59.6097 123.158 59.0128 123.265C55.3464 123.919 54.9441 122.978 54.9441 113.741C54.9441 103.32 53.2727 99.9147 46.5405 96.6205C41.9835 94.3905 30.3039 94.5204 25.2933 96.8566ZM457.421 96.8803C451.056 99.848 448.929 104.241 448.924 114.436C448.919 123.02 448.861 123.191 445.934 123.191C443.414 123.191 442.95 123.718 442.95 126.58C442.95 128.732 443.56 129.969 444.622 129.969C445.896 129.969 446.393 132.321 446.712 139.854C447.036 147.558 447.655 150.403 449.516 152.75C451.852 155.697 457.245 159.345 459.251 159.336C459.806 159.334 458.574 158.359 456.511 157.168C454.449 155.979 452.397 154.447 451.951 153.765C451.505 153.082 453.133 153.804 455.569 155.368C458.004 156.931 460.862 158.219 461.92 158.228C463.429 158.242 463.5 158.451 462.249 159.202C461.042 159.926 461.27 160.309 463.192 160.785C465.3 161.307 465.589 161.953 464.904 164.613C464.45 166.373 463.354 168.22 462.468 168.717C459.062 170.628 461.137 171.767 468.021 171.767C473.593 171.767 475.184 171.391 475.184 170.073C475.184 169.141 474.378 168.378 473.393 168.378C472.142 168.378 471.602 167.185 471.602 164.424C471.602 161.617 472.136 160.471 473.441 160.471C477.074 160.471 484.875 155.789 487.164 152.235C488.985 149.411 489.502 146.547 489.506 139.289C489.509 131.76 489.854 129.969 491.301 129.969C492.495 129.969 493.092 128.839 493.092 126.58C493.092 124.031 492.543 123.191 490.875 123.191C488.951 123.191 488.57 121.975 487.991 113.986C487.24 103.621 485.34 100.141 478.681 96.9278C473.458 94.4074 462.777 94.3837 457.421 96.8803ZM465.701 105.116C466.321 105.116 466.827 103.082 466.827 100.597C466.827 98.1117 467.364 96.0782 468.021 96.0782C468.678 96.0782 469.215 98.1117 469.215 100.597C469.215 103.082 469.752 105.116 470.409 105.116C471.065 105.116 471.602 103.082 471.602 100.597C471.602 98.1117 472.14 96.0782 472.796 96.0782C473.453 96.0782 473.99 98.1117 473.99 100.597C473.99 103.082 474.527 105.116 475.184 105.116C475.841 105.116 476.378 103.591 476.378 101.727C476.378 99.8627 476.915 98.3376 477.572 98.3376C478.228 98.3376 478.766 99.8627 478.766 101.727C478.766 103.591 479.303 105.116 479.96 105.116C480.616 105.116 481.153 104.353 481.153 103.421C481.153 100.692 483.498 101.474 484.765 104.624C486.661 109.345 486.28 109.635 478.169 109.635C473.791 109.635 470.409 110.127 470.409 110.764C470.409 111.401 473.791 111.894 478.169 111.894C482.547 111.894 485.929 112.386 485.929 113.024C485.929 113.661 482.547 114.153 478.169 114.153C473.791 114.153 470.409 114.646 470.409 115.283C470.409 115.92 473.791 116.413 478.169 116.413C482.547 116.413 485.929 116.905 485.929 117.542C485.929 118.179 482.547 118.672 478.169 118.672C473.791 118.672 470.409 119.165 470.409 119.802C470.409 120.439 473.791 120.931 478.169 120.931C482.547 120.931 485.929 121.424 485.929 122.061C485.929 122.698 482.547 123.191 478.169 123.191C473.791 123.191 470.409 123.683 470.409 124.32C470.409 124.958 473.791 125.45 478.169 125.45C482.547 125.45 485.929 125.943 485.929 126.58C485.929 127.217 482.547 127.71 478.169 127.71C473.791 127.71 470.409 128.202 470.409 128.839C470.409 129.476 473.791 129.969 478.169 129.969C482.547 129.969 485.929 130.461 485.929 131.099C485.929 131.736 482.547 132.228 478.169 132.228C473.791 132.228 470.409 132.721 470.409 133.358C470.409 133.995 473.791 134.488 478.169 134.488C482.547 134.488 485.929 134.98 485.929 135.617C485.929 136.255 482.547 136.747 478.169 136.747C473.791 136.747 470.409 137.24 470.409 137.877C470.409 138.514 473.791 139.006 478.169 139.006C482.547 139.006 485.929 139.499 485.929 140.136C485.929 140.773 482.547 141.266 478.169 141.266C473.791 141.266 470.409 141.758 470.409 142.396C470.409 143.035 473.834 143.525 478.298 143.525H486.188L485.383 146.632C484.94 148.34 483.807 150.483 482.865 151.392C481.368 152.84 481.153 152.733 481.153 150.545C481.153 149.169 480.616 148.044 479.96 148.044C479.303 148.044 478.766 149.569 478.766 151.433C478.766 153.297 478.228 154.822 477.572 154.822C476.915 154.822 476.378 153.297 476.378 151.433C476.378 149.569 475.841 148.044 475.184 148.044C474.527 148.044 473.99 150.077 473.99 152.563C473.99 155.048 473.453 157.082 472.796 157.082C472.14 157.082 471.602 155.048 471.602 152.563C471.602 150.077 471.065 148.044 470.409 148.044C469.752 148.044 469.215 150.077 469.215 152.563C469.215 155.048 468.678 157.082 468.021 157.082C467.364 157.082 466.827 155.048 466.827 152.563C466.827 150.077 466.29 148.044 465.633 148.044C464.977 148.044 464.439 150.077 464.439 152.563C464.439 155.048 463.902 157.082 463.245 157.082C462.589 157.082 462.052 155.048 462.052 152.563C462.052 150.077 461.514 148.044 460.858 148.044C460.201 148.044 459.664 149.569 459.664 151.433C459.664 153.297 459.127 154.822 458.47 154.822C457.813 154.822 457.276 153.297 457.276 151.433C457.276 147.493 455.251 146.842 454.639 150.586C454.252 152.949 454.079 152.873 452.168 149.513C449.006 143.949 449.41 143.525 457.873 143.525C462.251 143.525 465.633 143.033 465.633 142.396C465.633 141.758 462.251 141.266 457.873 141.266C453.495 141.266 450.113 140.773 450.113 140.136C450.113 139.499 453.495 139.006 457.873 139.006C462.251 139.006 465.633 138.514 465.633 137.877C465.633 137.24 462.251 136.747 457.873 136.747C453.495 136.747 450.113 136.255 450.113 135.617C450.113 134.98 453.495 134.488 457.873 134.488C462.251 134.488 465.633 133.995 465.633 133.358C465.633 132.721 462.251 132.228 457.873 132.228C453.495 132.228 450.113 131.736 450.113 131.099C450.113 130.454 453.695 129.969 458.47 129.969C463.245 129.969 466.827 129.484 466.827 128.839C466.827 128.194 463.245 127.71 458.47 127.71C453.695 127.71 450.113 127.225 450.113 126.58C450.113 125.943 453.495 125.45 457.873 125.45C462.251 125.45 465.633 124.958 465.633 124.32C465.633 123.683 462.251 123.191 457.873 123.191C453.495 123.191 450.113 122.698 450.113 122.061C450.113 121.424 453.495 120.931 457.873 120.931C462.251 120.931 465.633 120.439 465.633 119.802C465.633 119.165 462.251 118.672 457.873 118.672C453.495 118.672 450.113 118.179 450.113 117.542C450.113 116.905 453.495 116.413 457.873 116.413C462.251 116.413 465.633 115.92 465.633 115.283C465.633 114.646 462.251 114.153 457.873 114.153C453.495 114.153 450.113 113.661 450.113 113.024C450.113 112.388 453.472 111.894 457.803 111.894C462.032 111.894 465.824 111.386 466.23 110.764C466.696 110.051 463.854 109.635 458.54 109.635C453.452 109.635 450.113 109.165 450.113 108.448C450.113 107.797 451.038 105.637 452.168 103.647C454.079 100.286 454.252 100.211 454.639 102.574C455.251 106.318 457.276 105.667 457.276 101.727C457.276 99.8627 457.813 98.3376 458.47 98.3376C459.127 98.3376 459.664 99.8627 459.664 101.727C459.664 103.591 460.201 105.116 460.858 105.116C461.514 105.116 462.052 103.421 462.052 101.351C462.052 95.7981 463.783 95.109 464.209 100.491C464.412 103.035 465.083 105.116 465.701 105.116ZM42.5446 98.9736C42.2664 99.6594 42.7702 100.221 43.6632 100.221C44.5574 100.221 45.0147 99.8028 44.6816 99.2922C43.7993 97.9411 48.0984 99.6447 49.9549 101.381C51.261 102.601 51.1571 102.876 49.358 102.969C47.8 103.05 48.0292 103.338 50.1686 103.986L53.1533 104.891L50.1686 105.116L47.184 105.341L50.1686 106.33C52.9157 107.241 52.8488 107.294 49.3365 106.988C47.2365 106.804 45.7907 107.07 46.1238 107.58C46.4557 108.088 47.985 108.505 49.5215 108.505C52.1743 108.505 52.3092 108.873 52.203 115.848C52.1421 119.886 51.6597 123.191 51.1309 123.191C50.602 123.191 50.1603 122.556 50.1507 121.779C50.1376 120.838 49.746 120.931 48.9747 122.061C47.9456 123.567 47.8131 123.567 47.7809 122.061C47.7486 120.555 47.6161 120.555 46.587 122.061C45.5579 123.567 45.4254 123.567 45.3932 122.061C45.3609 120.555 45.226 120.555 44.1814 122.061C43.1356 123.567 42.8753 123.567 41.8295 122.061C40.7848 120.555 40.6499 120.555 40.6177 122.061C40.5855 123.567 40.4529 123.567 39.4238 122.061C38.6526 120.931 38.261 120.838 38.2479 121.779C38.2359 122.749 35.9915 123.191 31.0668 123.191C26.1421 123.191 23.8976 122.749 23.8857 121.779C23.8726 120.838 23.481 120.931 22.7097 122.061C21.6806 123.567 21.5481 123.567 21.5159 122.061C21.486 120.701 21.2795 120.664 20.4701 121.874C18.5563 124.729 18.1002 120.242 19.0243 107.658C19.0816 106.881 20.0689 106.238 21.2174 106.229C23.0034 106.214 23.0464 106.051 21.5159 105.116C20.0259 104.204 20.1262 104.003 22.1128 103.914C23.4261 103.856 23.8344 103.552 23.019 103.242C20.3507 102.221 24.2725 99.7656 28.1263 100.043C30.0723 100.184 30.5892 100.048 29.276 99.7418C27.1426 99.2448 27.1079 99.1103 28.9525 98.4732C32.5687 97.2237 43.0974 97.6124 42.5446 98.9736ZM26.6125 102.51C27.7741 102.797 29.3858 102.777 30.1941 102.468C31.0023 102.158 30.052 101.924 28.0821 101.947C26.1123 101.97 25.4509 102.223 26.6125 102.51ZM133.538 104.912C126.108 107.738 125.618 108.14 126.205 110.944C126.788 113.742 126.556 113.935 122.824 113.768C119.549 113.621 118.816 114.002 118.816 115.848C118.816 117.737 119.528 118.069 123.166 117.872C127.849 117.619 128.912 119.061 128.947 125.704C128.962 128.574 128.748 128.705 125.784 127.64C122.124 126.322 120.155 127.537 120.83 130.696C121.291 132.852 124.188 133.252 128.068 131.695C129.902 130.96 130.157 131.566 130.157 136.648C130.157 142.324 130.095 142.424 127.045 141.7C122.995 140.737 120.667 143.476 122.813 146.676C123.541 147.762 124.599 147.841 126.973 146.987C129.9 145.934 130.157 146.07 130.157 148.682C130.157 150.245 131.367 153.663 132.844 156.279L135.53 161.035L135.892 154.426C136.176 149.229 135.818 147.514 134.217 146.407C132.056 144.911 132.959 141.95 135.341 142.727C136.112 142.978 137.374 141.134 138.196 138.55C139.113 135.669 139.452 135.202 139.096 137.312C138.781 139.176 138.171 145.189 137.739 150.675C137.001 160.066 137.088 160.628 139.227 160.277C140.477 160.073 141.894 159.397 142.377 158.776C142.941 158.049 143.26 158.09 143.272 158.895C143.283 159.627 145.389 160.094 148.364 160.024C152.917 159.918 153.652 159.5 155.525 155.952C156.673 153.777 157.614 150.545 157.614 148.77C157.616 146.14 158.003 145.693 159.706 146.354C163.922 147.991 165.372 147.516 165.754 144.372C166.169 140.959 164.138 140.302 159.861 142.468C157.612 143.607 157.505 143.354 157.85 137.667C158.133 132.993 158.61 131.761 160.004 132.101C167.044 133.818 167.167 133.782 167.167 129.969C167.167 126.186 166.622 126.038 160.899 128.268C158.579 129.171 158.234 127.33 159.554 121.082C160.268 117.704 160.488 117.589 164.926 118.261C169.363 118.932 169.555 118.831 169.555 115.844C169.555 112.903 169.316 112.765 165.295 113.382C161.17 114.015 161.058 113.939 161.745 110.978C162.422 108.061 162.054 107.776 153.767 104.804C148.989 103.09 144.275 101.732 143.29 101.787C142.305 101.841 137.916 103.247 133.538 104.912ZM348.635 102.723C344.678 103.384 344.456 103.662 344.456 107.94C344.456 111.401 344.037 112.355 342.665 112.015C338.121 110.888 336.099 111.373 336.099 113.588C336.099 115.491 336.807 115.808 340.576 115.599L345.053 115.351V121.005C345.053 126.245 344.883 126.574 342.744 125.49C338.53 123.356 336.502 124.029 336.916 127.427C337.123 129.136 337.84 130.446 338.509 130.338C339.178 130.231 341.192 129.795 342.986 129.369C346.225 128.6 346.247 128.633 346.247 134.487C346.247 139.654 345.99 140.277 344.158 139.565C338.438 137.336 337.89 137.484 337.89 141.255C337.89 143.698 338.38 144.722 339.382 144.366C345.644 142.139 346.155 142.213 346.877 145.438C347.268 147.182 348.295 150.151 349.161 152.035C350.686 155.352 351.011 155.469 359.367 155.742C364.294 155.903 368.67 155.495 369.565 154.793C370.427 154.115 371.815 151.046 372.647 147.971C373.968 143.093 374.475 142.475 376.62 143.122C381.394 144.562 382.66 144.174 382.66 141.266C382.66 138.323 381.406 137.966 376.392 139.479C373.842 140.247 373.706 139.992 373.706 134.441C373.706 128.194 374.081 128.009 381.355 130.65C382.844 131.19 383.257 130.577 383.257 127.83C383.257 125.109 382.736 124.32 380.939 124.32C379.664 124.32 378.29 124.829 377.884 125.45C376.155 128.097 374.9 126.191 374.9 120.918V115.256L379.675 115.979C384.271 116.675 384.45 116.586 384.45 113.601C384.45 110.411 384.129 110.339 377.306 112.022C375.961 112.354 375.53 111.375 375.516 107.961C375.498 103.887 375.16 103.395 371.915 102.73C367.41 101.805 354.149 101.801 348.635 102.723ZM28.9775 104.795C30.7838 105.054 33.7375 105.054 35.5438 104.795C37.3501 104.536 35.8721 104.325 32.2607 104.325C28.6492 104.325 27.1724 104.536 28.9775 104.795ZM26.0669 109.337C27.0817 111.349 28.1287 112.791 28.3925 112.541C28.6564 112.292 28.2875 111.052 27.5724 109.788C26.3427 107.614 26.6459 107.469 33.1465 107.136L40.0208 106.782L32.1198 106.231L24.22 105.681L26.0669 109.337ZM218.503 133.358V160.471H251.932C270.317 160.471 285.36 160.089 285.361 159.623C285.361 159.158 283.347 158.776 280.884 158.776H276.406L276.044 152.833C275.768 148.281 276.117 146.731 277.536 146.216C279.075 145.657 279.39 143.148 279.39 131.461V117.381L282.674 117.743C285.511 118.057 286.009 117.668 286.348 114.864C286.564 113.08 286.419 110.412 286.027 108.933L285.314 106.245H251.909H218.503V133.358ZM29.6497 109.276C30.5105 109.603 31.5408 109.562 31.9371 109.187C32.3335 108.812 31.6291 108.546 30.3708 108.594C28.9799 108.648 28.697 108.916 29.6497 109.276ZM34.3499 109.253C35.1713 109.567 36.5144 109.567 37.3346 109.253C38.156 108.94 37.4838 108.683 35.8422 108.683C34.2007 108.683 33.5297 108.94 34.3499 109.253ZM48.7515 110.406C49.6123 110.733 50.6426 110.692 51.0389 110.317C51.4353 109.942 50.7309 109.675 49.4726 109.724C48.0817 109.778 47.7988 110.046 48.7515 110.406ZM37.799 112.456C36.6791 115.219 36.9024 116.097 38.23 114.153C39.2591 112.647 39.3928 112.647 39.4417 114.153C39.4835 115.447 39.7963 115.36 40.7634 113.786C41.4606 112.652 41.7125 111.424 41.3245 111.056C40.9353 110.689 40.6093 111.108 40.5998 111.988C40.5843 113.296 40.3968 113.313 39.5719 112.081C38.766 110.879 38.4079 110.955 37.799 112.456ZM351.989 113.871C351.505 116.252 349.385 116.102 348.846 113.648C348.62 112.625 349.278 111.894 350.425 111.894C351.655 111.894 352.24 112.634 351.989 113.871ZM371.68 113.573C371.809 114.186 370.974 114.858 369.826 115.068C368.518 115.306 367.736 114.752 367.736 113.588C367.736 111.623 371.264 111.609 371.68 113.573ZM136.127 116.306C136.127 117.904 135.51 118.308 133.739 117.87C132.426 117.545 131.351 116.575 131.351 115.716C131.351 114.857 132.426 114.153 133.739 114.153C135.292 114.153 136.127 114.907 136.127 116.306ZM156.422 115.848C156.422 116.789 155.361 117.542 154.035 117.542C151.657 117.542 150.93 116.338 152.443 114.907C153.897 113.531 156.422 114.128 156.422 115.848ZM224.473 131.663C224.473 143.664 224.751 145.785 226.323 145.785C227.821 145.785 228.106 147.02 227.816 152.28C227.461 158.703 227.413 158.781 223.577 159.13L219.697 159.484V138.513C219.697 118.296 219.783 117.542 222.085 117.542C224.345 117.542 224.473 118.296 224.473 131.663ZM234.956 132.039C235.16 140.414 235.767 145.785 236.508 145.785C237.234 145.785 237.58 148.4 237.366 152.28C237.012 158.703 236.964 158.781 233.128 159.13L229.248 159.484V152.634C229.248 148.821 229.777 145.785 230.442 145.785C231.175 145.785 231.636 140.293 231.636 131.57C231.636 120.7 231.987 117.464 233.128 117.823C234.187 118.156 234.717 122.279 234.956 132.039ZM253.125 131.673C253.125 143.168 253.443 145.658 254.979 146.216C256.399 146.731 256.748 148.281 256.472 152.833L256.11 158.776L247.455 159.003L238.799 159.229V152.507C238.799 148.778 239.33 145.785 239.993 145.785C240.725 145.785 241.187 140.368 241.187 131.793V117.803H247.156H253.125V131.673ZM262.676 131.543C262.676 143.156 262.993 145.658 264.53 146.216C265.95 146.731 266.299 148.281 266.023 152.833C265.669 158.63 265.565 158.785 261.781 159.13L257.901 159.484V152.634C257.901 148.821 258.43 145.785 259.095 145.785C259.827 145.785 260.289 140.325 260.289 131.663C260.289 123.002 260.751 117.542 261.482 117.542C262.214 117.542 262.676 122.963 262.676 131.543ZM272.227 131.663C272.227 140.325 272.689 145.785 273.421 145.785C274.085 145.785 274.615 148.797 274.615 152.563V159.341H271.033H267.452V152.563C267.452 148.797 267.982 145.785 268.646 145.785C269.377 145.785 269.84 140.325 269.84 131.663C269.84 123.002 270.302 117.542 271.033 117.542C271.765 117.542 272.227 123.002 272.227 131.663ZM136.942 123.403C136.561 124.304 136.278 124.036 136.221 122.72C136.17 121.529 136.452 120.863 136.848 121.238C137.244 121.613 137.287 122.588 136.942 123.403ZM353.199 128.086C353.422 129.175 352.823 129.969 351.777 129.969C349.56 129.969 348.22 128.128 349.271 126.52C350.35 124.867 352.734 125.816 353.199 128.086ZM371.318 127.078C371.318 127.974 370.734 129.047 370.02 129.465C368.334 130.451 366.033 128.273 367.075 126.678C368.245 124.886 371.318 125.176 371.318 127.078ZM138.395 129.362C138.329 130.006 137.846 131.805 137.321 133.358C136.683 135.241 136.325 135.524 136.246 134.205C136.181 133.117 135.321 132.228 134.336 132.228C132.568 132.228 131.873 129.851 133.258 128.541C134.424 127.438 138.524 128.094 138.395 129.362ZM155.229 130.6C155.229 131.496 154.154 132.228 152.841 132.228C150.235 132.228 149.537 129.339 151.945 128.521C153.965 127.835 155.229 128.636 155.229 130.6ZM51.3625 129.969L48.3778 130.874L51.3625 131.066C54.1191 131.243 54.1645 131.331 51.9594 132.228L49.5717 133.199L51.9594 133.368C53.2727 133.461 53.8087 133.751 53.1509 134.013C52.4919 134.275 52.0215 137.031 52.1051 140.137C52.2244 144.626 51.8579 145.8 50.3166 145.864C48.8303 145.925 48.9342 146.17 50.7655 146.914C52.973 147.812 52.9276 147.901 50.1686 148.096C48.2011 148.234 47.8704 148.478 49.1992 148.809C51.064 149.275 51.0688 149.472 49.2684 151.461C47.8 153.085 46.9356 153.305 45.7346 152.362C44.481 151.378 44.3199 151.545 44.9717 153.154C45.5173 154.498 45.3514 154.931 44.4846 154.424C43.7623 154.002 42.8335 154.173 42.4204 154.804C42.0085 155.436 38.8818 155.875 35.4733 155.782L29.276 155.613L34.6484 154.822L40.0208 154.031L32.8576 153.845C28.9178 153.742 24.8885 153.165 23.9036 152.563C22.9187 151.961 22.6501 151.424 23.3067 151.371C23.9633 151.318 23.4261 150.838 22.1128 150.303C20.1668 149.511 20.0976 149.318 21.7439 149.253C22.8542 149.21 24.0469 148.739 24.3943 148.207C24.7417 147.676 23.6983 147.48 22.077 147.774C19.5174 148.237 19.1091 147.879 18.9873 145.07C18.807 140.953 18.7879 141.099 19.8397 138.539C20.3698 137.25 20.2683 136.645 19.5878 137.043C18.5945 137.624 18.3318 134.865 18.9419 130.251C19.0816 129.187 23.4738 128.867 36.7376 128.952C47.4144 129.02 53.1724 129.421 51.3625 129.969ZM30.1714 130.778C31.9777 131.037 34.9313 131.037 36.7376 130.778C38.544 130.519 37.066 130.308 33.4545 130.308C29.8431 130.308 28.3651 130.519 30.1714 130.778ZM41.5131 130.717C42.3345 131.031 43.6776 131.031 44.4978 130.717C45.3191 130.404 44.647 130.147 43.0054 130.147C41.3639 130.147 40.6929 130.404 41.5131 130.717ZM450.557 150.868C451.105 152.223 450.739 151.997 449.641 150.303C448.351 148.314 447.858 144.809 447.974 138.442L448.137 129.404L448.889 139.006C449.303 144.288 450.053 149.626 450.557 150.868ZM354.764 134.77C354.376 137.062 353.968 137.675 353.676 136.399C353.231 134.457 354.043 131.099 354.956 131.099C355.191 131.099 355.105 132.751 354.764 134.77ZM37.0731 132.793C37.0731 133.414 37.5936 134.685 38.23 135.617C39.2591 137.123 39.3916 137.123 39.4238 135.617C39.4561 134.112 39.5886 134.112 40.6177 135.617C41.254 136.549 41.7746 136.804 41.7746 136.182C41.7746 135.561 41.254 134.29 40.6177 133.358C39.5886 131.852 39.4561 131.852 39.4238 133.358C39.3916 134.864 39.2591 134.864 38.23 133.358C37.5936 132.426 37.0731 132.172 37.0731 132.793ZM20.7351 137.031C20.8366 138.619 21.3213 139.684 21.8143 139.396C23.0858 138.653 22.9234 139.907 21.3965 142.606C20.4426 144.295 20.4426 144.718 21.3965 144.16C22.1188 143.738 22.7097 143.888 22.7097 144.495C22.7097 145.1 22.0388 145.852 21.2174 146.166C20.0928 146.596 20.0821 146.758 21.1756 146.825C21.9731 146.874 23.235 145.837 23.9812 144.518C24.9327 142.835 24.9459 142.351 24.023 142.89C22.2274 143.941 22.3731 142.898 24.5889 138.845C25.6216 136.955 26.1588 135.116 25.7828 134.759C25.4055 134.403 25.0891 134.831 25.0796 135.711C25.064 137.03 24.8563 137.013 23.9036 135.617C22.8745 134.112 22.742 134.112 22.7097 135.617C22.6787 137.043 22.5044 137.06 21.6126 135.727C20.8473 134.584 20.6026 134.947 20.7351 137.031ZM46.624 135.053C46.624 135.674 47.1446 136.945 47.7809 137.877C48.4172 138.809 48.9377 139.063 48.9377 138.442C48.9377 137.82 48.4172 136.549 47.7809 135.617C47.1446 134.685 46.624 134.431 46.624 135.053ZM354.634 141.904C356.119 145.6 356.13 148.372 354.656 147.51C354.028 147.142 353.817 146.095 354.187 145.184C354.647 144.049 354.065 143.525 352.344 143.525C350.625 143.525 349.828 142.81 349.828 141.266C349.828 138.013 353.252 138.468 354.634 141.904ZM370.785 140.234C372.015 142.119 369.249 144.279 367.601 142.72C366.224 141.416 367.086 139.006 368.93 139.006C369.509 139.006 370.344 139.559 370.785 140.234ZM140.524 144.867C140.143 145.768 139.86 145.5 139.803 144.184C139.751 142.993 140.033 142.327 140.429 142.702C140.826 143.077 140.869 144.052 140.524 144.867ZM155.002 144.372C154.78 145.46 153.808 146.349 152.841 146.349C151.874 146.349 150.902 145.46 150.68 144.372C150.398 142.985 151.043 142.396 152.841 142.396C154.639 142.396 155.284 142.985 155.002 144.372ZM487.913 147.197C487.582 147.974 487.311 147.338 487.311 145.785C487.311 144.231 487.582 143.596 487.913 144.372C488.245 145.15 488.245 146.421 487.913 147.197ZM28.4558 145.426C29.3166 145.753 30.3469 145.712 30.7433 145.337C31.1396 144.962 30.4352 144.696 29.1769 144.744C27.7861 144.798 27.5031 145.066 28.4558 145.426ZM27.8064 147.697C28.968 147.984 30.5797 147.965 31.3879 147.655C32.1962 147.346 31.2459 147.112 29.276 147.135C27.3061 147.157 26.6447 147.41 27.8064 147.697ZM34.3499 147.662C35.1713 147.976 36.5144 147.976 37.3346 147.662C38.156 147.349 37.4838 147.093 35.8422 147.093C34.2007 147.093 33.5297 147.349 34.3499 147.662ZM27.7837 149.983C29.59 150.241 32.5436 150.241 34.3499 149.983C36.1562 149.724 34.6782 149.513 31.0668 149.513C27.4554 149.513 25.9785 149.724 27.7837 149.983ZM139.337 154.54C139.037 155.628 138.791 154.737 138.791 152.563C138.791 150.388 139.037 149.498 139.337 150.586C139.638 151.674 139.638 153.452 139.337 154.54ZM28.9775 152.242C30.7838 152.501 33.7375 152.501 35.5438 152.242C37.3501 151.983 35.8721 151.772 32.2607 151.772C28.6492 151.772 27.1724 151.983 28.9775 152.242ZM485.929 151.801C485.929 152.004 484.451 153.401 482.646 154.908L479.363 157.646L482.257 154.54C484.962 151.636 485.929 150.915 485.929 151.801ZM477.572 158.211C476.587 158.813 474.975 159.279 473.99 159.244C472.809 159.203 473.012 158.852 474.587 158.211C477.869 156.877 479.754 156.877 477.572 158.211ZM351.022 161.6C351.022 164.152 351.534 164.812 353.41 164.679C355.133 164.556 355.798 163.699 355.798 161.6C355.798 159.501 355.133 158.645 353.41 158.522C351.534 158.389 351.022 159.048 351.022 161.6ZM356.994 161.318C356.996 164.266 357.301 164.435 362.963 164.618C368.808 164.807 368.93 164.744 368.93 161.511C368.93 158.304 368.762 158.211 362.961 158.211C357.245 158.211 356.992 158.342 356.994 161.318ZM141.21 163.399C142.309 164.437 152.841 164.652 152.841 163.634C152.841 163.137 150.065 162.73 146.672 162.73C143.28 162.73 140.822 163.03 141.21 163.399ZM465.236 196.244C463.601 197.79 464.395 206.843 466.223 207.506C467.204 207.863 467.633 208.728 467.176 209.428C465.833 211.484 465.923 214.695 467.325 214.713C468.163 214.724 468.199 215.022 467.424 215.56C465.836 216.664 465.8 221.821 467.373 222.869C468.189 223.414 468.118 223.705 467.163 223.716C466.363 223.725 465.997 224.448 466.352 225.322C466.706 226.195 467.13 228.578 467.295 230.62C467.46 232.661 468.25 234.538 469.051 234.791C470.139 235.133 470.468 232.431 470.35 224.125C470.166 211.19 471.396 200.917 473.266 199.771C474.126 199.244 473.76 198.385 472.193 197.266C469.664 195.457 466.55 195 465.236 196.244ZM35.693 197.119C35.6106 197.466 35.4542 198.132 35.3432 198.598C35.2334 199.063 34.4562 201.342 33.6169 203.659C31.9097 208.373 32.5233 210.177 35.8327 210.177C38.6192 210.177 39.8859 206.647 38.8938 201.646C38.2347 198.319 36.1168 195.325 35.693 197.119ZM348.449 209.538C346.049 210.405 342.715 211.964 341.04 213.002C339.365 214.04 337.4 214.543 336.673 214.117C334.929 213.097 330.475 216.965 331.235 218.841C331.562 219.645 330.372 222.963 328.592 226.214C325.811 231.289 325.354 233.487 325.354 241.768C325.354 250.192 325.768 252.105 328.627 256.901C330.427 259.921 331.583 262.876 331.196 263.468C330.196 264.997 334.26 268.921 336.844 268.921C338.035 268.921 341.15 269.976 343.765 271.266C353.12 275.88 368.645 275.813 377.057 271.123C379.228 269.912 382.251 268.921 383.776 268.921C386.873 268.921 389.563 266.49 389.006 264.194C388.806 263.366 390.18 259.444 392.061 255.476C395.108 249.053 395.423 247.323 394.94 239.67C394.555 233.584 393.574 229.593 391.579 225.993C390.028 223.197 388.884 220.097 389.037 219.105C389.356 217.025 386.14 214.165 383.362 214.059C382.319 214.019 378.78 212.772 375.496 211.286C368.233 208.001 355.061 207.149 348.449 209.538ZM135.53 211.467C130.494 214.296 130.288 216.13 134.583 219.898C137.445 222.407 137.965 224.02 139.119 233.965L140.422 245.197L135.912 248.022C133.432 249.575 130.904 250.846 130.292 250.846C129.682 250.846 128.097 247.804 126.77 244.085C124.248 237.017 124.247 237.022 129.55 234.437C132.46 233.019 133.023 230.718 131.429 226.751C129.883 222.904 125.562 222.749 118.175 226.275C111.641 229.394 109.143 234.303 112.803 236.834C114.063 237.706 116.334 238.419 117.85 238.419C119.366 238.419 120.607 238.871 120.607 239.422C120.607 239.974 122.49 243.016 124.792 246.182L128.977 251.939L124.618 257.323C120.219 262.757 117 268.76 117.056 271.426C117.073 272.223 118.658 269.81 120.578 266.063C124.773 257.883 129.744 252.904 131.316 255.309C131.994 256.349 131.156 259 128.865 263.063C126.95 266.46 125.409 270.311 125.444 271.622C125.481 273.031 126.467 271.696 127.857 268.356C132.032 258.324 132.48 258.104 139.548 262.606C147.203 267.48 156.703 269.544 163.502 267.813C169.348 266.323 177.912 258.995 177.912 255.483C177.912 246.876 168.243 241.075 156.114 242.407C152.126 242.845 147.356 243.612 145.515 244.112C142.402 244.957 142.118 244.757 141.419 241.239C141.007 239.16 141.125 234.244 141.682 230.314C142.683 223.233 142.729 223.167 146.627 222.982C148.79 222.88 151.341 222.182 152.298 221.432C154.543 219.669 154.536 214.237 152.287 212.47C149.808 210.524 138.421 209.843 135.53 211.467ZM34.9074 217.238C34.9039 219.879 34.7666 225.777 34.6042 230.345C34.4001 236.055 34.7761 238.925 35.8064 239.529C36.9872 240.219 36.9597 240.536 35.6787 241.021C34.3069 241.539 34.3081 241.806 35.687 242.72C37.0421 243.618 36.9907 243.98 35.3838 244.83C33.7291 245.707 33.6646 246.304 34.9421 248.907C35.7658 250.585 36.8606 251.962 37.3752 251.966C37.8897 251.971 38.2491 243.079 38.1739 232.206C38.0652 216.751 37.6951 212.436 36.475 212.436C35.4363 212.436 34.9122 214.042 34.9074 217.238ZM368.785 214.194C384.004 218.471 393.04 233.541 389.28 248.375C385.328 263.961 368.176 273.307 351.587 268.912C344.156 266.944 335.103 259.103 332.324 252.226C326.061 236.734 334.812 218.889 350.985 214.172C358.135 212.086 361.295 212.091 368.785 214.194ZM242.619 214.922C241.624 215.864 241.187 221.844 241.187 234.553C241.187 249.42 240.853 253.09 239.396 254.235C237.967 255.357 237.243 255.357 235.814 254.235C234.501 253.203 234.024 250.464 234.024 243.956C234.024 235.737 233.803 234.945 231.039 233.232C228.295 231.53 227.818 231.528 225.133 233.193C222.75 234.67 222.143 236.099 221.85 240.937C221.42 247.985 218.974 249.273 215.873 244.083C214.209 241.299 213.068 240.679 209.606 240.679C207.276 240.679 205.371 241.187 205.371 241.808C205.371 242.43 206.995 242.938 208.978 242.938C211.677 242.938 212.932 243.656 213.958 245.789C215.545 249.083 220.14 250.583 222.639 248.62C223.617 247.852 224.509 244.762 224.713 241.434C225.042 236.049 225.301 235.595 228.054 235.595C230.966 235.595 231.053 235.837 231.636 245.524C232.064 252.652 232.738 255.754 234.024 256.521C236.769 258.158 239.425 257.831 241.568 255.59C243.167 253.917 243.572 250.259 243.842 234.987C244.146 217.846 244.345 216.388 246.416 216.011C247.65 215.787 249.12 216.289 249.681 217.127C250.242 217.964 250.709 229.416 250.72 242.575C250.735 262.804 251.028 266.774 252.613 268.276C255.129 270.655 257.414 270.511 260.289 267.791C262.47 265.727 262.676 264.026 262.676 248.159C262.676 234.683 263.05 230.494 264.341 229.481C265.625 228.472 266.442 228.588 267.922 229.988C269.329 231.319 269.84 233.976 269.84 239.968C269.84 248.645 270.945 250.846 275.305 250.846C278.968 250.846 281 248.041 281.739 241.963C282.478 235.882 285.021 234.941 287.498 239.831C288.866 242.531 289.766 242.938 294.379 242.938C297.298 242.938 299.686 242.43 299.686 241.808C299.686 241.187 297.665 240.679 295.194 240.679C291.743 240.679 290.428 240.11 289.523 238.229C286.192 231.306 280.347 232.938 279.337 241.074C278.611 246.909 276.908 249.228 274.098 248.207C272.628 247.674 272.227 245.702 272.227 239.019C272.227 232.017 271.805 230.111 269.84 228.252C266.965 225.532 264.68 225.388 262.164 227.767C260.617 229.231 260.289 232.672 260.289 247.399C260.289 266.021 259.564 268.758 255.068 267.125C253.357 266.504 253.125 263.523 253.125 242.178C253.125 227.628 252.631 217.062 251.89 215.751C250.489 213.275 244.889 212.774 242.619 214.922ZM356.194 215.968C357.397 216.63 360.352 216.878 362.76 216.52C366.681 215.937 366.848 216.007 364.362 217.188C362.239 218.197 360.33 218.19 356.259 217.16C351.909 216.058 350.335 216.104 347.67 217.408C334.16 224.018 328.561 240.806 335.568 253.689C339.037 260.071 347.898 267.201 350.897 266.027C351.951 265.613 353.888 265.064 355.201 264.807C357.135 264.427 357.078 264.552 354.902 265.464C353.424 266.082 352.216 266.733 352.216 266.908C352.216 267.083 355.657 267.226 359.863 267.226C364.068 267.226 367.274 266.867 366.988 266.429C366.701 265.99 363.331 265.047 359.5 264.334C349.91 262.549 343.946 259.104 339.43 252.739C336.02 247.933 335.643 246.617 336.003 240.799C336.517 232.519 340.723 226.15 348.128 222.441C353.003 219.998 353.267 219.651 351.336 218.215C349.377 216.76 349.397 216.712 351.619 217.537C354.028 218.43 367.728 220.433 371.643 220.464C372.805 220.473 373.498 220.877 373.182 221.362C372.865 221.848 374.134 223.313 376.001 224.62C380.425 227.714 384.458 235.709 384.424 241.318C384.37 250.445 375.953 260.999 367.293 262.799L363.696 263.547L366.903 265.136C369.676 266.512 370.571 266.501 373.522 265.057C379.052 262.351 384.245 255.815 386.387 248.864C390.251 236.325 384.711 223.811 372.654 217.851C368.028 215.564 364.582 214.705 360.139 214.73C355.216 214.758 354.438 215.002 356.194 215.968ZM336.696 217.453C336.696 218.645 334.405 219.147 333.723 218.103C333.311 217.471 333.812 216.955 334.835 216.955C335.858 216.955 336.696 217.179 336.696 217.453ZM369.527 218.085C369.121 218.706 368.252 219.214 367.595 219.214C366.939 219.214 366.733 218.706 367.139 218.085C367.545 217.463 368.414 216.955 369.071 216.955C369.728 216.955 369.933 217.463 369.527 218.085ZM386.838 217.453C386.838 217.728 386.301 218.266 385.644 218.65C384.988 219.034 384.45 218.809 384.45 218.151C384.45 217.494 384.988 216.955 385.644 216.955C386.301 216.955 386.838 217.179 386.838 217.453ZM351.022 219.779C351.022 219.957 350.306 220.362 349.431 220.681C348.555 220.998 347.838 220.593 347.838 219.779C347.838 218.966 348.555 218.56 349.431 218.878C350.306 219.196 351.022 219.602 351.022 219.779ZM345.849 220.859C345.849 221.764 345.392 222.238 344.834 221.911C344.277 221.585 344.129 220.845 344.507 220.266C345.472 218.789 345.849 218.955 345.849 220.859ZM375.445 220.266C375.824 220.845 375.676 221.585 375.118 221.911C374.56 222.238 374.103 221.764 374.103 220.859C374.103 218.955 374.48 218.789 375.445 220.266ZM354.604 229.248C354.604 229.87 355.141 230.692 355.798 231.076C356.454 231.46 356.992 231.266 356.992 230.645C356.992 230.023 356.454 229.201 355.798 228.817C355.141 228.433 354.604 228.627 354.604 229.248ZM353.497 235.747C350.234 239.672 350.348 244.204 353.785 247.26C359.703 252.52 368.93 248.974 368.93 241.44C368.93 233.527 358.532 229.691 353.497 235.747ZM363.887 236.359C364.913 237.329 364.938 238.092 363.98 239.183C362.157 241.261 357.07 241.057 356.183 238.87C354.887 235.673 361.042 233.667 363.887 236.359ZM467.424 237.29C467.018 237.911 467.191 238.419 467.807 238.419C468.762 238.419 468.832 240.768 468.134 249.434C468.072 250.211 467.604 250.846 467.094 250.846C466.585 250.846 466.372 248.812 466.623 246.327C467.122 241.374 465.581 240.567 460.48 243.107C456.624 245.028 456.124 246.222 456.063 253.67C456.021 258.835 455.307 261.524 453.067 264.967C449.646 270.221 449.388 273.355 451.983 278.103C454.171 282.108 461.882 285.816 468.021 285.816C473.626 285.816 481.691 282.216 484.199 278.594C486.765 274.888 485.986 268.107 482.455 263.416C480.451 260.753 479.997 258.688 480.245 253.37C480.597 245.797 479.256 243.468 473.908 242.356C471.213 241.796 470.409 240.999 470.409 238.895C470.409 236.117 468.767 235.233 467.424 237.29ZM333.958 243.207C333.673 244.612 333.428 243.729 333.415 241.243C333.402 238.758 333.636 237.608 333.934 238.688C334.233 239.768 334.244 241.802 333.958 243.207ZM386.467 243.785C386.167 244.873 385.921 243.983 385.921 241.808C385.921 239.634 386.167 238.743 386.467 239.831C386.768 240.919 386.768 242.697 386.467 243.785ZM23.3485 245.074C22.9545 246.249 23.4476 249.426 24.4444 252.135C26.9312 258.894 26.7605 261.136 23.321 266.829C19.5603 273.054 19.5114 277.294 23.161 280.748C29.4467 286.695 40.9556 287.173 47.7463 281.767C52.4155 278.049 52.5766 272.775 48.2357 265.766C45.4349 261.243 45.2487 260.276 46.4449 256.498C48.2393 250.832 48.194 249.118 46.2886 250.602C45.4684 251.241 42.2437 252.123 39.1254 252.563C34.3547 253.235 33.4545 253.072 33.4545 251.539C33.4545 250.444 32.46 249.716 30.9629 249.716C29.2915 249.716 28.0272 248.601 27.1199 246.327C25.5631 242.426 24.3692 242.03 23.3485 245.074ZM166.956 246.788C172.629 249.565 175.067 257.895 171.261 261.498C166.945 265.58 153.706 262.173 147.718 255.439C143.422 250.609 143.633 249.078 148.961 246.341C153.963 243.772 161.156 243.95 166.956 246.788ZM175.351 251.363C176.533 253.635 176.636 255.128 175.731 256.896C174.592 259.123 174.486 259.029 174.412 255.734C174.363 253.573 173.026 250.656 171.047 248.391C167.775 244.645 167.774 244.638 170.749 246.442C172.39 247.438 174.462 249.652 175.351 251.363ZM140.902 248.375C140.902 250.132 133.925 255.606 132.642 254.856C130.495 253.601 131.16 252.313 135.231 249.846C139.411 247.313 140.902 246.927 140.902 248.375ZM144.677 254.16C147.348 258.602 155.167 263.328 161.088 264.079C168.024 264.96 165.86 266.666 157.844 266.637C150.537 266.609 142.251 263.731 137.606 259.605L134.908 257.208L138.129 254.027C139.899 252.277 141.651 250.849 142.021 250.853C142.391 250.857 143.586 252.345 144.677 254.16ZM378.005 259.33C377.859 260.269 377.138 261.606 376.403 262.302C374.854 263.767 374.921 261.421 376.496 259.036C377.747 257.142 378.327 257.255 378.005 259.33ZM351.969 263.851C352.161 264 351.462 264.434 350.415 264.814C349.16 265.27 348.802 265.06 349.365 264.198C349.932 263.328 349.566 263.127 348.272 263.595C346.283 264.318 344.535 263.01 345.84 261.776C346.416 261.229 350.282 262.538 351.969 263.851ZM373.308 262.658C373.308 263.563 372.851 264.036 372.293 263.71C371.736 263.383 371.588 262.643 371.966 262.065C372.931 260.587 373.308 260.753 373.308 262.658ZM37.9315 264.051C36.783 264.335 34.9015 264.335 33.753 264.051C32.6045 263.767 33.5441 263.534 35.8422 263.534C38.1404 263.534 39.08 263.767 37.9315 264.051ZM370.713 264.39C371.131 265.029 370.652 265.219 369.589 264.834C367.521 264.082 367.143 263.272 368.86 263.272C369.478 263.272 370.312 263.775 370.713 264.39ZM336.696 264.9C336.696 265.175 336.159 265.713 335.502 266.097C334.845 266.481 334.308 266.256 334.308 265.598C334.308 264.941 334.845 264.402 335.502 264.402C336.159 264.402 336.696 264.626 336.696 264.9ZM386.838 264.9C386.838 265.175 386.301 265.713 385.644 266.097C384.988 266.481 384.45 266.256 384.45 265.598C384.45 264.941 384.988 264.402 385.644 264.402C386.301 264.402 386.838 264.626 386.838 264.9ZM37.3573 267.403C36.549 267.712 34.9373 267.731 33.7757 267.444C32.614 267.157 33.2754 266.904 35.2453 266.882C37.2152 266.859 38.1655 267.093 37.3573 267.403ZM226.386 310.437C222.412 320.309 218.622 334.39 217.682 342.774L216.938 349.411L219.809 347.672C231.736 340.448 268.981 339.116 278.197 345.584C280.182 346.977 281.181 348.772 281.181 350.945C281.181 355.484 275.315 358.162 265.363 358.164C261.185 358.165 257.901 358.663 257.901 359.296C257.901 359.955 253.944 360.426 248.42 360.426C243.206 360.426 238.608 360.934 238.202 361.555C237.796 362.177 236.422 362.685 235.147 362.685C233.158 362.685 232.83 363.496 232.83 368.408C232.83 371.555 232.273 375.114 231.594 376.316C230.393 378.439 230.974 378.501 252.129 378.501C269.061 378.501 273.58 378.199 272.466 377.145C271.678 376.4 271.033 374.189 271.033 372.233C271.033 369.148 271.651 368.447 275.687 366.946C282.483 364.42 284.482 360.806 284.67 350.712C284.782 344.664 285.323 341.941 286.551 341.222C287.499 340.667 287.952 339.908 287.556 339.534C287.161 339.16 285.983 339.663 284.937 340.653C283.199 342.298 282.504 342.054 276.808 337.794C273.383 335.231 265.445 330.304 259.166 326.842C243.292 318.089 236.687 313.198 233.207 307.613C231.562 304.973 230.044 302.812 229.836 302.812C229.628 302.812 228.076 306.244 226.386 310.437ZM130.405 305.918C129.838 307.005 129.297 310.22 129.204 313.06C129.035 318.174 129.07 318.222 132.58 317.734C135.773 317.29 136.127 317.548 136.127 320.322C136.127 323.102 135.778 323.354 132.545 322.905C129.526 322.486 128.978 322.777 129.058 324.754C129.109 326.044 129.423 326.465 129.754 325.688C130.086 324.912 131.655 324.276 133.241 324.276C136.038 324.276 136.127 324.537 136.127 332.833V341.392L132.247 341.023L128.367 340.656L128.022 350.541C127.802 356.834 128.128 360.426 128.917 360.426C129.599 360.426 130.157 361.92 130.157 363.748C130.157 365.576 130.695 367.385 131.351 367.769C132.008 368.153 132.545 369.425 132.545 370.595C132.545 373.012 136.794 376.241 139.975 376.241C141.141 376.241 143.171 375.225 144.484 373.982C146.726 371.86 146.872 370.217 146.872 347.121C146.872 326.683 147.186 322.094 148.73 320.009C149.752 318.627 151.567 317.498 152.762 317.498C157.175 317.498 158.188 320.655 158.89 336.589L159.566 351.953L159.786 335.855C159.986 321.108 159.803 319.567 157.616 317.498C154.747 314.783 151.903 314.63 148.332 316.997C145.724 318.724 145.678 319.198 145.678 343.858C145.678 364.749 145.366 369.382 143.819 371.471C141.497 374.608 138.357 374.679 135.469 371.659C133.64 369.747 133.501 368.953 134.687 367.156C135.479 365.957 136.127 363.952 136.127 362.701C136.127 361.449 136.73 360.426 137.465 360.426C138.431 360.426 138.589 355.313 138.031 342.068C137.606 331.972 137.185 320.152 137.094 315.803C136.916 307.243 135.815 303.941 133.142 303.941C132.204 303.941 130.972 304.831 130.405 305.918ZM134.564 306.483C135.095 307.26 135.53 309.547 135.53 311.567C135.53 314.546 135.056 315.237 133.016 315.238C130.859 315.238 130.538 314.634 130.759 311.002C130.901 308.672 131.092 306.385 131.184 305.918C131.447 304.585 133.5 304.929 134.564 306.483ZM13.1588 344.61V378.501H35.8422H58.5257V344.61V310.719H35.8422H13.1588V344.61ZM449.158 312.075C447.115 314.008 447.115 375.212 449.158 377.145C450.143 378.077 456.089 378.501 468.175 378.501C482.568 378.501 486.098 378.179 487.635 376.726C490.428 374.081 490.444 317.002 487.652 313.231C485.874 310.829 485.027 310.719 468.192 310.719C456.094 310.719 450.143 311.143 449.158 312.075ZM346.82 319.03C340.052 322.013 329.853 331.97 328.868 336.557C328.517 338.19 327.742 341.306 327.144 343.48C326.546 345.655 325.691 350.866 325.242 355.06C324.547 361.564 324.704 362.685 326.303 362.685C327.334 362.685 328.504 363.657 328.902 364.844C329.903 367.829 337.618 373.193 339.778 372.408C341.228 371.882 341.488 369.455 341.212 359.049C340.811 343.936 339.578 342.746 331.876 350.035C329.274 352.496 327.145 354.386 327.145 354.234C327.145 354.081 327.676 351.305 328.326 348.065C329.496 342.23 331.062 339.713 339.002 330.913C348.89 319.953 363.598 318.086 376.288 326.177C382.045 329.847 390.117 341.11 391.659 347.626C393.024 353.389 392.509 355.082 390.481 351.497C388.852 348.616 382.466 345.351 380.125 346.202C378.737 346.706 378.468 349.295 378.74 359.543C379.152 375.028 380.13 375.739 389.314 367.229L395.532 361.467L394.835 354.451C393.315 339.166 388.403 328.223 380.746 323.063C370.057 315.861 357.421 314.359 346.82 319.03ZM40.3515 319.256C44.1694 321.786 44.0166 328.115 40.0793 330.557C32.6857 335.141 24.7978 325.689 31.0668 319.757C33.9356 317.042 36.7806 316.89 40.3515 319.256ZM483.541 336.171V354.845L468.319 354.529L453.098 354.212L452.769 335.855L452.441 317.498H467.991H483.541V336.171ZM33.1561 320.977C30.3087 322.546 30.4902 327.293 33.4545 328.794C38.4723 331.335 43.237 324.947 39.1851 321.113C37.4599 319.48 35.9354 319.445 33.1561 320.977ZM468.021 332.183C468.021 338.054 467.608 340.091 466.415 340.091C465.532 340.091 463.947 340.993 462.894 342.094C460.429 344.671 462.005 347.189 465.768 346.685C468.44 346.328 468.655 345.743 469.215 337.283L469.812 328.261L472.498 331.505C473.976 333.288 475.184 334.367 475.184 333.902C475.184 332.36 469.986 324.276 468.995 324.276C468.459 324.276 468.021 327.834 468.021 332.183ZM37.633 326.535C37.2271 327.156 36.2553 327.657 35.4733 327.648C34.6185 327.636 34.7666 327.193 35.8422 326.535C38.1357 325.132 38.5487 325.132 37.633 326.535ZM42.6126 339.534C52.4322 343.417 56.477 353.285 51.7756 361.894C46.2897 371.94 33.2945 374.358 24.4206 366.986C16.867 360.71 16.479 349.641 23.586 343.209C29.5577 337.805 35.3898 336.679 42.6126 339.534ZM25.575 345.062C22.0233 348.423 21.5159 349.62 21.5159 354.646C21.5159 359.316 22.1295 361.04 24.799 363.867C30.3648 369.76 41.6611 369.912 47.2854 364.17C51.6908 359.671 50.7166 359.003 46.1095 363.363C43.8769 365.475 41.3257 367.202 40.4386 367.199C39.5528 367.197 40.5389 366.207 42.6306 365.001C50.3871 360.525 51.4031 352.33 44.955 346.229C42.7452 344.138 41.223 342.155 41.5728 341.823C41.9226 341.492 39.3797 341.221 35.9222 341.221C30.3624 341.221 29.1638 341.666 25.575 345.062ZM46.1608 346.118C48.0364 348.202 49.7484 349.776 49.9657 349.616C50.756 349.032 46.3912 343.651 44.5968 342.999C43.5689 342.626 44.2638 344.01 46.1608 346.118ZM28.6791 343.907C28.6791 344.141 27.7383 345.031 26.5898 345.884C24.6963 347.289 24.6545 347.249 26.1385 345.457C27.6989 343.575 28.6791 342.978 28.6791 343.907ZM24.2367 350.304C23.8869 351.57 23.3341 352.355 23.007 352.047C22.3611 351.436 23.5025 347.999 24.3513 347.999C24.639 347.999 24.5877 349.036 24.2367 350.304ZM39.1851 351.614C42.5315 354.781 39.2758 360.121 34.8155 358.782C31.807 357.878 30.7468 355.195 32.3072 352.437C33.6957 349.98 37.0361 349.581 39.1851 351.614ZM50.4456 354.777C50.4456 356.952 50.6915 357.841 50.9912 356.754C51.292 355.667 51.292 353.887 50.9912 352.8C50.6915 351.714 50.4456 352.603 50.4456 354.777ZM282.299 358.616C280.897 363.9 271.033 368.946 271.033 364.38C271.033 363.448 269.991 362.685 268.716 362.685C267.441 362.685 266.076 362.191 265.682 361.588C264.97 360.497 266.501 360.022 274.794 358.766C277.19 358.404 279.818 357.345 280.634 356.414C282.622 354.149 283.26 354.993 282.299 358.616ZM24.2498 359.297C24.5937 360.541 24.3871 361.274 23.7926 360.925C23.1968 360.577 22.7097 359.56 22.7097 358.665C22.7097 356.326 23.5204 356.659 24.2498 359.297ZM478.551 359.171C479.589 359.777 479.976 362.081 479.73 366.182L479.363 372.287H468.021H456.679L456.311 366.833C456.11 363.834 456.55 360.688 457.293 359.843C458.792 358.131 475.853 357.592 478.551 359.171ZM463.434 366.074C463.434 367.628 463.705 368.264 464.036 367.486C464.368 366.71 464.368 365.439 464.036 364.662C463.705 363.886 463.434 364.521 463.434 366.074ZM471.791 366.074C471.791 367.628 472.062 368.264 472.393 367.486C472.725 366.71 472.725 365.439 472.393 364.662C472.062 363.886 471.791 364.521 471.791 366.074ZM467.424 370.593C467.018 371.214 467.256 371.723 467.95 371.723C468.645 371.723 469.215 371.214 469.215 370.593C469.215 369.972 468.978 369.463 468.688 369.463C468.398 369.463 467.83 369.972 467.424 370.593ZM156.422 417.299C156.422 419.224 153.76 422.072 146.661 427.741L136.9 435.535L129.947 435.156L122.994 434.777V448.542V462.306L130.029 461.923L137.063 461.539L146.743 469.268C152.408 473.792 156.422 477.863 156.422 479.084C156.422 480.231 156.96 481.483 157.616 481.867C158.311 482.274 158.81 481.148 158.81 479.177C158.81 477.313 159.347 475.473 160.004 475.089C160.661 474.705 161.198 470.561 161.198 465.881C161.198 459.082 161.678 456.793 163.586 454.498C164.899 452.918 165.973 449.994 165.973 447.999C165.973 445.808 165.029 443.564 163.586 442.328C161.587 440.617 161.198 438.849 161.198 431.488C161.198 426.65 160.661 422.378 160.004 421.994C159.347 421.61 158.81 419.801 158.81 417.973C158.81 416.145 158.273 414.651 157.616 414.651C156.96 414.651 156.422 415.843 156.422 417.299ZM241.537 416.288C211.232 425.25 208.237 466.367 237.001 478.566C245.806 482.3 251.804 482.883 260.28 480.828C283.218 475.268 293.92 453.208 283.477 433.013C276.235 419.006 257.545 411.553 241.537 416.288ZM354.735 416.171C352.173 417.565 348.787 421.883 348.676 423.896C348.654 424.321 353.934 424.829 360.41 425.026L372.186 425.383L371.078 422.386C368.769 416.135 360.548 413.008 354.735 416.171ZM452.847 419.17C452.503 420.412 451.469 421.429 450.549 421.429C449.152 421.429 448.929 425.857 449.196 448.259C449.401 465.488 449.943 474.964 450.71 474.74C451.366 474.548 452.172 475.468 452.501 476.784C453.377 480.295 455.395 479.659 456.082 475.654C456.411 473.742 457.216 472.201 457.873 472.231C458.53 472.261 459.226 469.001 459.419 464.988C459.7 459.147 460.118 457.815 461.508 458.319C462.951 458.843 463.245 457.203 463.245 448.662C463.245 440.271 462.916 438.374 461.455 438.374C460.061 438.374 459.664 436.868 459.664 431.596C459.664 426.324 459.266 424.818 457.873 424.818C456.622 424.818 456.082 423.625 456.082 420.864C456.082 416.612 453.874 415.455 452.847 419.17ZM3.60793 434.42C3.60793 443.082 4.06995 448.542 4.80179 448.542C5.53363 448.542 5.99565 443.082 5.99565 434.42C5.99565 425.759 5.53363 420.299 4.80179 420.299C4.06995 420.299 3.60793 425.759 3.60793 434.42ZM19.1282 426.513C19.1282 429.93 19.6654 432.726 20.322 432.726C20.9786 432.726 21.5159 429.93 21.5159 426.513C21.5159 423.095 20.9786 420.299 20.322 420.299C19.6654 420.299 19.1282 423.095 19.1282 426.513ZM34.6484 431.596C34.6484 438.374 35.1259 442.893 35.8422 442.893C36.5586 442.893 37.0361 438.374 37.0361 431.596C37.0361 424.818 36.5586 420.299 35.8422 420.299C35.1259 420.299 34.6484 424.818 34.6484 431.596ZM50.9649 421.053C49.7006 422.248 50.0421 429.337 51.3625 429.337C52.0191 429.337 52.5563 427.303 52.5563 424.818C52.5563 420.201 52.3582 419.733 50.9649 421.053ZM66.4851 421.053C65.1767 422.29 65.5539 444.023 66.8827 444.023C67.6026 444.023 68.0766 439.315 68.0766 432.161C68.0766 420.312 67.9799 419.637 66.4851 421.053ZM241.205 428.241L245.265 436.183L250.091 435.539C255.992 434.751 261.603 437.651 264.526 442.999C266.37 446.376 266.349 448.439 264.398 454.889C263.811 456.83 265.05 458.305 270.95 462.692C278.01 467.941 278.164 468.168 276.123 470.305C274.965 471.517 272.559 473.493 270.776 474.695L267.534 476.882L263.131 468.643C257.947 458.942 256.452 459.897 260.837 470.107C262.515 474.018 263.482 477.563 262.984 477.985C262.487 478.406 260.644 479.07 258.891 479.461C255.727 480.165 255.697 480.113 254.956 472.546C254.097 463.791 253.173 461.669 250.013 461.192C243.539 460.217 238.799 455.164 238.799 449.239C238.799 446.15 238.37 445.956 227.159 443.94C218.687 442.418 218.341 441.74 222.185 434.225C224.372 429.949 234.187 420.299 236.349 420.299C236.786 420.299 238.971 423.874 241.205 428.241ZM488.317 448.542C488.317 465.863 488.748 475.654 489.51 475.654C490.273 475.654 490.704 465.863 490.704 448.542C490.704 431.22 490.273 421.429 489.51 421.429C488.748 421.429 488.317 431.22 488.317 448.542ZM491.898 448.542C491.898 467.872 492.157 471.135 493.689 471.135C495.221 471.135 495.48 467.872 495.48 448.542C495.48 429.211 495.221 425.948 493.689 425.948C492.157 425.948 491.898 429.211 491.898 448.542ZM350.005 429.817C351.199 432.298 352.153 432.593 360.075 432.924C368.228 433.266 368.911 433.113 370.072 430.696C370.757 429.269 371.318 427.871 371.318 427.589C371.318 427.308 366.226 427.077 360.001 427.077H348.686L350.005 429.817ZM272.702 436.673C282.066 445.735 286.514 453.568 284.365 457.202C283.427 458.789 282.777 457.84 280.957 452.23C279.187 446.778 277.571 444.353 273.378 440.868C270.447 438.431 266.888 436.09 265.47 435.668C262.029 434.641 259.861 432.02 260.715 429.916C261.913 426.959 263.717 427.976 272.702 436.673ZM479.96 429.902C479.96 430.834 479.154 431.596 478.169 431.596C476.844 431.596 476.378 432.91 476.378 436.645C476.378 440.668 476.014 441.56 474.587 441.043C473.107 440.505 472.796 441.685 472.796 447.856C472.796 453.737 473.176 455.32 474.587 455.32C475.914 455.32 476.378 456.638 476.378 460.403C476.378 464.169 476.842 465.487 478.169 465.487C479.154 465.487 479.96 466.249 479.96 467.181C479.96 468.113 480.765 468.876 481.75 468.876C482.735 468.876 483.541 468.129 483.541 467.216C483.541 466.207 484.241 465.812 485.332 466.208C486.878 466.769 487.123 464.359 487.123 448.542C487.123 432.724 486.878 430.314 485.332 430.875C484.241 431.271 483.541 430.877 483.541 429.867C483.541 428.954 482.735 428.207 481.75 428.207C480.765 428.207 479.96 428.97 479.96 429.902ZM440.562 432.691C440.562 435.208 440.116 435.882 438.771 435.394C437.239 434.837 436.98 436.741 436.98 448.542C436.98 460.342 437.239 462.246 438.771 461.689C440.116 461.201 440.562 461.875 440.562 464.392C440.562 466.62 441.164 467.746 442.353 467.746C443.875 467.746 444.144 464.859 444.144 448.542C444.144 432.224 443.875 429.337 442.353 429.337C441.164 429.337 440.562 430.463 440.562 432.691ZM464.439 448.542C464.439 463.856 464.713 466.617 466.23 466.617C467.263 466.617 468.06 465.541 468.115 464.075C468.167 462.676 468.481 462.169 468.811 462.945C470.688 467.345 471.602 462.623 471.602 448.542C471.602 434.46 470.688 429.738 468.811 434.138C468.481 434.915 468.167 434.407 468.115 433.008C468.06 431.542 467.263 430.467 466.23 430.467C464.713 430.467 464.439 433.227 464.439 448.542ZM48.6321 432.298C47.3093 433.549 47.6233 447.412 48.9747 447.412C49.7066 447.412 50.1686 452.85 50.1686 461.466C50.1686 469.617 50.67 475.815 51.3625 476.219C52.1337 476.67 52.5563 471.946 52.5563 462.867C52.5563 451.582 52.9193 448.534 54.3997 447.371C55.7726 446.292 56.1523 444.172 55.892 439.042C55.5649 432.619 55.3392 432.138 52.5122 431.827C50.8455 431.643 49.0989 431.855 48.6321 432.298ZM433.399 437.21C433.399 440.73 433.014 441.553 431.608 441.043C430.128 440.505 429.817 441.685 429.817 447.856C429.817 453.737 430.197 455.32 431.608 455.32C432.853 455.32 433.399 456.505 433.399 459.207C433.399 461.345 433.936 463.408 434.593 463.792C435.368 464.245 435.787 458.909 435.787 448.608C435.787 438.773 435.332 432.726 434.593 432.726C433.936 432.726 433.399 434.744 433.399 437.21ZM496.674 448.608C496.674 458.155 497.095 463.115 497.867 462.663C498.56 462.258 499.061 456.061 499.061 447.91C499.061 439.294 498.599 433.856 497.867 433.856C497.132 433.856 496.674 439.527 496.674 448.608ZM16.399 435.685C14.761 437.236 15.4833 448.32 17.3374 450.075C18.7139 451.377 19.1282 454.666 19.1282 464.277C19.1282 471.862 19.5985 476.784 20.322 476.784C21.0479 476.784 21.5159 471.741 21.5159 463.913C21.5159 453.337 21.8454 450.923 23.364 450.372C24.8169 449.844 25.1357 448.186 24.8563 442.625C24.5065 435.657 24.4456 435.544 20.876 435.215C18.8822 435.029 16.8682 435.242 16.399 435.685ZM352.953 449.954C353.262 458.187 353.793 467.083 354.133 469.723L354.751 474.524H360.087C363.314 474.524 365.605 473.966 365.885 473.112C366.138 472.336 366.675 463.44 367.077 453.343L367.809 434.985H360.1H352.39L352.953 449.954ZM137.918 448.353C137.918 462.367 135.633 461.966 135.187 447.874C134.92 439.424 135.184 437.135 136.381 437.514C137.485 437.861 137.918 440.913 137.918 448.353ZM246.559 438.549C243.995 439.877 241.187 442.805 241.187 444.152C241.187 444.607 242.757 443.493 244.676 441.676C251.725 435.007 262.676 439.216 262.676 448.595C262.676 454.504 256.973 459.228 250.954 458.304C245.697 457.498 242.888 455.04 241.303 449.86L240.035 445.717L240.629 449.617C241.834 457.516 250.381 461.824 257.721 458.232C262.257 456.012 263.87 453.32 263.87 447.964C263.87 439.956 254.104 434.644 246.559 438.549ZM445.337 448.542C445.337 455.32 445.815 459.838 446.531 459.838C447.248 459.838 447.725 455.32 447.725 448.542C447.725 441.763 447.248 437.245 446.531 437.245C445.815 437.245 445.337 441.763 445.337 448.542ZM53.7502 440.069C53.7502 441.001 52.9443 441.763 51.9594 441.763C50.9745 441.763 50.1686 441.001 50.1686 440.069C50.1686 439.137 50.9745 438.374 51.9594 438.374C52.9443 438.374 53.7502 439.137 53.7502 440.069ZM500.255 448.542C500.255 454.566 500.741 458.709 501.449 458.709C502.106 458.709 502.643 457.946 502.643 457.014C502.643 456.073 503.704 455.32 505.031 455.32C506.344 455.32 507.418 454.811 507.418 454.19C507.418 453.569 508.224 453.06 509.209 453.06C510.502 453.06 511 451.805 511 448.542C511 445.433 510.482 444.023 509.337 444.023C508.422 444.023 507.352 443.228 506.958 442.257C506.564 441.286 505.697 440.809 505.031 441.199C504.364 441.588 503.498 441.112 503.104 440.14C501.367 435.857 500.255 439.137 500.255 448.542ZM22.4113 442.611C22.7038 443.439 21.88 444.023 20.4211 444.023C18.955 444.023 17.9343 443.293 17.9343 442.246C17.9343 440.169 21.6591 440.473 22.4113 442.611ZM164.741 448.686C164.763 450.319 163.974 452.286 162.989 453.06C161.432 454.283 161.198 453.609 161.198 447.899C161.198 441.882 161.345 441.515 162.951 443.525C163.915 444.73 164.721 447.053 164.741 448.686ZM32.2607 452.358C32.2607 456.399 32.7979 460.019 33.4545 460.403C34.1111 460.787 34.6484 464.346 34.6484 468.311C34.6484 472.276 35.1856 475.835 35.8422 476.219C36.5944 476.66 37.0361 473.99 37.0361 468.999C37.0361 463.01 37.4886 460.841 38.8926 460.097C40.318 459.343 40.6655 457.558 40.3849 452.415C40.0232 445.766 39.9921 445.715 36.1407 445.364L32.2607 445.009V452.358ZM425.261 448.172C425.811 452.57 428.623 452.958 428.623 448.635C428.623 446.227 428.047 445.153 426.754 445.153C425.427 445.153 424.993 446.033 425.261 448.172ZM63.3011 453.559C63.3011 457.561 63.8383 461.149 64.495 461.533C65.1516 461.917 65.6888 465.221 65.6888 468.876C65.6888 472.531 66.2261 475.835 66.8827 476.219C67.6313 476.657 68.0766 474.2 68.0766 469.628C68.0766 464.191 68.5314 462.175 69.8674 461.689C71.2057 461.203 71.6582 459.178 71.6582 453.66V446.282H67.4796H63.3011V453.559ZM250.738 448.542C250.738 449.163 251.275 449.671 251.932 449.671C252.588 449.671 253.125 449.163 253.125 448.542C253.125 447.92 252.588 447.412 251.932 447.412C251.275 447.412 250.738 447.92 250.738 448.542ZM0.751012 452.588C-0.642227 456.022 0.0120102 464.182 1.81713 465.89C2.80207 466.822 3.60793 469.4 3.60793 471.62C3.60793 473.839 4.14517 475.654 4.80179 475.654C5.45842 475.654 5.99565 473.621 5.99565 471.135C5.99565 468.65 6.53289 466.617 7.18952 466.617C7.87121 466.617 8.38338 463.228 8.38338 458.709V450.801H4.92953C2.88086 450.801 1.1808 451.528 0.751012 452.588ZM468.811 454.472C468.481 455.25 468.21 454.614 468.21 453.06C468.21 451.507 468.481 450.872 468.811 451.648C469.143 452.425 469.143 453.696 468.811 454.472ZM38.23 453.06C38.23 453.682 37.4241 454.19 36.4392 454.19C35.4542 454.19 34.6484 453.682 34.6484 453.06C34.6484 452.439 35.4542 451.931 36.4392 451.931C37.4241 451.931 38.23 452.439 38.23 453.06ZM69.2704 454.19C69.2704 454.811 68.196 455.32 66.8827 455.32C65.5695 455.32 64.495 454.811 64.495 454.19C64.495 453.569 65.5695 453.06 66.8827 453.06C68.196 453.06 69.2704 453.569 69.2704 454.19ZM7.18952 458.709C7.18952 459.33 6.11504 459.838 4.80179 459.838C3.48854 459.838 2.41406 459.33 2.41406 458.709C2.41406 458.087 3.48854 457.579 4.80179 457.579C6.11504 457.579 7.18952 458.087 7.18952 458.709ZM354.819 479.326C355.142 481.478 355.933 481.867 359.976 481.867C364.02 481.867 364.81 481.478 365.134 479.326C365.482 477.003 365.037 476.784 359.976 476.784C354.915 476.784 354.47 477.003 354.819 479.326Z" fill="url(#paint0_linear_9_63)"/>
<defs>
<linearGradient id="paint0_linear_9_63" x1="255.5" y1="0" x2="255.5" y2="482" gradientUnits="userSpaceOnUse">
<stop stop-color="#DA2F81"/>
<stop offset="0.520833" stop-color="#4D9595"/>
<stop offset="1" stop-color="#93D0CD"/>
</linearGradient>
</defs>
</svg>
