<svg width="105" height="101" viewBox="0 0 105 101" fill="none" xmlns="http://www.w3.org/2000/svg">
<path fill-rule="evenodd" clip-rule="evenodd" d="M28.2322 0.426645C26.3398 1.35583 21.8938 7.00169 20.1526 10.6875C17.961 15.3252 17.5429 17.3273 17.5429 23.1848C17.5429 27.8282 17.6506 28.8906 18.3401 31.044C19.9176 35.971 22.4451 40.2872 25.8951 43.9449C28.3402 46.5373 30.1629 47.0208 32.063 45.5809C32.9707 44.8933 33.1422 44.5396 33.1422 43.3565C33.1422 42.1415 32.9374 41.7473 31.6383 40.4631C29.3075 38.1588 28.3189 36.8329 26.8252 34.0075C25.1242 30.7904 24.4253 28.4143 24.1436 24.8934C23.5829 17.8797 26.1785 11.3043 31.6383 5.90638C33.6486 3.91915 33.7871 2.27775 32.0659 0.839441C30.9201 -0.11817 29.626 -0.257453 28.2322 0.426645ZM73.064 0.454122C72.0346 0.957247 71.1919 2.75845 71.5328 3.72586C71.6502 4.05938 72.7532 5.42284 73.9842 6.75629C79.1537 12.3557 81.4603 19.1992 80.4983 26.0822C79.7534 31.4129 77.7796 35.5023 73.9485 39.6521C72.7143 40.989 71.611 42.4172 71.4973 42.8256C71.0218 44.5311 72.8819 46.3986 75.0556 46.3986C76.8843 46.3986 81.2608 41.8282 83.8266 37.2394C89.7175 26.7038 88.3265 13.4555 80.3489 4.11907C77.0673 0.278202 75.271 -0.625401 73.064 0.454122ZM34.2287 10.8934C32.2612 12.832 30.306 16.2329 29.6207 18.9084C29.0546 21.1189 29.0546 25.2506 29.6207 27.4612C30.2853 30.0554 32.2184 33.4743 34.0695 35.328C36.0443 37.3064 37.0063 37.7065 38.6277 37.2246C41.1657 36.4703 41.6389 34.0353 39.6615 31.9037C37.0624 29.1022 35.9479 26.4852 35.9479 23.1848C35.9479 19.8843 37.0624 17.2673 39.6615 14.4658C41.9864 11.9597 40.881 9.13011 37.5773 9.13011C36.1323 9.13011 35.8876 9.25897 34.2287 10.8934ZM65.1617 9.6048C64.2516 10.179 63.539 11.965 63.8894 12.7928C64.0293 13.1235 64.7872 14.1061 65.5735 14.9768C68.006 17.6706 68.7169 19.5211 68.7271 23.1848C68.7344 25.9846 68.6254 26.5557 67.7633 28.216C67.2288 29.2463 66.2489 30.6852 65.5857 31.4138C63.7245 33.4595 63.5004 34.0861 64.138 35.4606C64.878 37.0556 66.6435 37.7586 68.3223 37.127C70.6262 36.26 73.9418 31.7098 75.0423 27.9059C75.7301 25.5279 75.7301 20.8416 75.0423 18.4637C74.2935 15.8754 72.191 12.4059 70.2951 10.6303C68.9126 9.33571 68.5023 9.13011 67.3035 9.13011C66.5397 9.13011 65.5756 9.34361 65.1617 9.6048ZM50.6756 16.989C48.6801 17.5724 47.4249 18.4043 46.4492 19.7898C45.597 20.9998 45.4171 21.592 45.4171 23.1848C45.4171 24.7873 45.5959 25.3678 46.4727 26.6131C47.6683 28.3108 50.3004 29.6508 52.4502 29.6562C54.3202 29.661 57.0947 28.2766 58.2661 26.7543C59.1428 25.6148 59.2701 25.1628 59.2701 23.1848C59.2701 21.2256 59.1393 20.75 58.3008 19.6604C56.6619 17.5304 53.0962 16.2812 50.6756 16.989ZM4.55924 52.3635C2.839 53.0773 1.50315 54.1802 0.647763 55.5935C0.0375261 56.6013 0 57.8075 0 76.4547V96.2462L1.06195 97.6068C1.64589 98.355 2.80358 99.3979 3.63477 99.9238L5.14563 100.88L51.6723 100.968C93.9099 101.047 98.3376 101.007 99.7033 100.542C101.678 99.8685 103.136 98.734 104.089 97.1293C104.857 95.8353 104.863 95.7045 104.973 77.3504C105.05 64.6482 104.963 58.3688 104.696 57.257C104.221 55.2853 102.352 53.1938 100.323 52.3635C98.964 51.8076 96.825 51.7817 52.4313 51.7817C8.02742 51.7817 5.89966 51.8076 4.55924 52.3635ZM15.5754 61.7416L16.6504 62.5558L16.7422 74.1381L16.8341 85.72L22.214 85.878C27.582 86.0356 27.5957 86.0378 28.4391 86.9221C29.816 88.3658 29.3496 90.558 27.48 91.4288C26.074 92.0835 13.1902 92.0762 11.7807 91.4199C10.0051 90.5931 9.9651 90.227 10.0717 75.8117L10.1706 62.4509L11.1547 61.6891C12.4797 60.663 14.1789 60.6832 15.5754 61.7416ZM38.0714 61.2523C39.7475 62.0599 39.8057 62.5675 39.8057 76.3723C39.8057 90.2896 39.7678 90.606 38.0013 91.4288C36.4974 92.1293 35.3075 91.9824 34.1673 90.9556L33.1422 90.0325L33.1534 76.3483C33.1618 66.0868 33.2712 62.54 33.5918 62.1673C34.5917 61.0047 36.6752 60.5793 38.0714 61.2523ZM50.0324 61.27C51.0249 61.7482 51.6801 63.2677 54.2076 70.9548C55.4214 74.6462 56.5157 77.6663 56.6391 77.6663C56.7626 77.6663 57.9388 74.4327 59.253 70.481C61.8381 62.708 62.2579 61.7469 63.284 61.2523C64.494 60.669 66.29 60.8708 67.2853 61.7014C68.4858 62.7033 68.504 64.1637 67.3572 67.4642C66.8865 68.8194 64.9822 74.4763 63.1255 80.035C59.3764 91.2579 59.1271 91.7067 56.6398 91.7067C54.0982 91.7067 53.9744 91.4663 49.2994 77.4632C46.9711 70.4899 45.0713 64.3074 45.0776 63.7244C45.0835 63.141 45.281 62.4405 45.516 62.1673C46.5271 60.9921 48.6008 60.5799 50.0324 61.27ZM93.3596 61.4017C94.377 62.0435 94.9844 63.7667 94.5534 64.7881C94.3689 65.2246 93.7906 65.8844 93.2681 66.2548C92.3766 66.8862 91.9189 66.9279 85.8768 66.9279H79.436V69.2966V71.6654H84.5445C87.6157 71.6654 89.9581 71.8059 90.4189 72.0182C92.5516 73.0004 93.0878 75.3926 91.4963 76.8258C90.5971 77.6359 90.4827 77.6521 85.0958 77.7373L79.6114 77.8242V81.7721V85.72L85.9849 85.878C92.1307 86.0302 92.3902 86.0634 93.2621 86.8015C94.579 87.917 94.5191 89.7144 93.1236 90.9711L92.0813 91.9098L83.2728 91.8153L74.4643 91.7209L73.6184 90.8347L72.7725 89.9484V76.3609V62.7734L73.7976 61.8502L74.8228 60.927H83.715C91.0596 60.927 92.7378 61.0098 93.3596 61.4017Z" fill="url(#paint0_linear_10_75)"/>
<defs>
<linearGradient id="paint0_linear_10_75" x1="52.5" y1="0" x2="52.5" y2="101" gradientUnits="userSpaceOnUse">
<stop stop-color="#63DDC0"/>
<stop offset="0.479167" stop-color="#8A83A3"/>
<stop offset="1" stop-color="#DD6381"/>
</linearGradient>
</defs>
</svg>
