<svg width="27" height="20" viewBox="0 0 27 20" fill="none" xmlns="http://www.w3.org/2000/svg">
<path fill-rule="evenodd" clip-rule="evenodd" d="M2.17443 0.0453738C1.36098 0.159913 0.632767 0.615996 0.238376 1.258C0.0657197 1.53909 0.0272013 1.70267 0.0272013 2.15509C0.0272013 2.60854 0.0652973 2.76977 0.238376 3.0483C0.541286 3.53578 1.08392 3.95244 1.63627 4.12162C2.09967 4.26362 2.18566 4.26466 13.5002 4.26466C24.8147 4.26466 24.9007 4.26362 25.3641 4.12162C25.9164 3.95244 26.4591 3.53578 26.762 3.0483C26.9351 2.76977 26.9732 2.60854 26.9732 2.15509C26.9732 1.70267 26.9346 1.53909 26.762 1.258C26.4778 0.795344 25.9997 0.415483 25.423 0.194082L24.9459 0.0109291L13.7536 0.000899922C7.59783 -0.00456422 2.38721 0.0154248 2.17443 0.0453738ZM1.87068 7.96035C1.07277 8.16578 0.451663 8.64351 0.164127 9.27278C-0.305104 10.2996 0.260592 11.4277 1.49343 11.9234L1.97001 12.115H13.5002H25.0303L25.5069 11.9234C26.7411 11.4271 27.3055 10.2997 26.835 9.27016C26.606 8.76898 26.1156 8.33233 25.5069 8.08748L25.0303 7.89589L13.6269 7.88275C4.41263 7.8721 2.15568 7.88697 1.87068 7.96035ZM1.6122 15.8927C1.08536 16.0585 0.532755 16.4888 0.238376 16.9626C0.0652973 17.2412 0.0272013 17.4024 0.0272013 17.8558C0.0272013 18.3083 0.0657197 18.4718 0.238376 18.7529C0.522534 19.2156 1.00063 19.5954 1.5774 19.8168L2.05448 20H13.5002H24.9459L25.423 19.8168C25.9997 19.5954 26.4778 19.2156 26.762 18.7529C26.9346 18.4718 26.9732 18.3083 26.9732 17.8558C26.9732 17.4024 26.9351 17.2412 26.762 16.9626C26.4591 16.4751 25.9164 16.0585 25.3641 15.8893C24.9004 15.7472 24.8203 15.7463 13.4758 15.7499C2.2393 15.7534 2.0473 15.7557 1.6122 15.8927Z" fill="url(#paint0_linear_4_10)"/>
<defs>
<linearGradient id="paint0_linear_4_10" x1="13.5" y1="0" x2="13.5" y2="20" gradientUnits="userSpaceOnUse">
<stop stop-color="#BDB6ED"/>
<stop offset="0.213542" stop-color="#B6D9ED"/>
<stop offset="0.885417" stop-color="#86AABE" stop-opacity="0.9375"/>
</linearGradient>
</defs>
</svg>
