<svg width="320" height="316" viewBox="0 0 320 316" fill="none" xmlns="http://www.w3.org/2000/svg">
<path fill-rule="evenodd" clip-rule="evenodd" d="M183.579 1.87265C166.916 7.19965 154.759 21.5957 149.238 42.5387C147 51.0297 146.696 71.3607 148.663 81.0877L150.008 87.7437L141.324 96.5877C125.805 112.391 115.034 126.929 108.282 141.186C103.833 150.581 103.135 154.106 105.296 156.267C107.052 158.023 109.571 158.392 111.432 157.166C112.045 156.762 114.219 152.606 116.264 147.931C125.814 126.099 141.611 107.82 180.817 73.2347C203.724 53.0287 208.265 46.7817 208.297 35.4307C208.313 29.9647 207.879 27.8467 206.317 25.7647C201.605 19.4847 194.107 18.2177 186.034 22.3377C173.783 28.5887 166.817 43.3257 166.817 62.9937V72.5956L162.751 75.8637C160.514 77.6607 158.467 78.9137 158.201 78.6487C157.936 78.3827 157.463 73.4997 157.151 67.7977C156.015 47.0447 160.847 31.7117 172.05 20.5177C179.195 13.3787 186.632 9.93065 194.887 9.93065C213.038 9.93065 224.001 28.7147 216.497 46.9547C211.994 57.8997 205.054 65.5727 179.317 88.0597C146.007 117.165 130.072 136.99 122.531 158.709C119.9 166.287 119.504 168.808 119.516 177.931C119.539 195.777 123.743 206.834 134.712 217.906C145.01 228.301 157.762 234.422 174.359 236.937C193.193 239.792 214.865 232.496 224.796 219.958C235.122 206.92 237.729 186.078 230.89 171.24C222.937 153.986 206.175 145.373 187.433 148.909C171.625 151.892 159.817 165.382 159.817 180.458C159.817 186.778 155.106 190.077 151.388 186.36C147.991 182.962 150.509 168.251 156.13 158.659C161.588 149.346 173.798 141.21 185.708 138.952C207.602 134.8 227.513 144.045 238.329 163.386C240.352 167.003 242.794 170.384 243.757 170.899C246.099 172.152 249.817 169.538 249.817 166.639C249.817 162.752 244.516 153.85 238.031 146.845C227.946 135.952 216.074 129.925 201.749 128.425L195.181 127.737L189.38 112.584L183.58 97.4307L191.448 90.4856C208.778 75.1916 219.166 63.8327 223.05 55.9307C232.228 37.2597 230.208 20.8867 217.269 9.06065C207.709 0.32365 196.144 -2.14435 183.579 1.87265ZM77.3753 38.4786C63.1073 44.2286 51.0763 49.4957 50.6403 50.1827C50.2043 50.8687 49.8413 60.1017 49.8323 70.6997L49.8173 89.9687L47.0673 89.1997C45.5543 88.7767 41.5933 88.4486 38.2633 88.4706C22.3113 88.5756 14.3013 102.658 24.8183 112.108C33.8183 120.195 50.3833 118.957 56.9833 109.704C59.2453 106.532 59.3323 105.646 59.8173 80.9887L60.3173 55.5476L79.7823 47.7387C90.4883 43.4447 99.3763 39.9307 99.5323 39.9307C99.6893 39.9307 99.8173 46.7287 99.8173 55.0377C99.8173 69.0167 99.6863 70.0937 98.0673 69.4667C97.1043 69.0937 94.2923 68.5467 91.8173 68.2517C77.3163 66.5217 65.3183 79.0537 72.0203 88.9307C79.4133 99.8277 99.3783 100.213 107.228 89.6097C109.205 86.9397 109.334 85.3427 109.627 59.7757C109.895 36.4647 109.721 32.4327 108.354 30.3467C107.483 29.0177 105.994 27.9517 105.044 27.9767C104.094 28.0027 91.6433 32.7276 77.3753 38.4786ZM197.293 30.2897C199.95 32.2327 199.463 38.1436 196.179 43.7986C193.668 48.1226 179.273 62.9307 177.58 62.9307C176.101 62.9307 176.84 53.0657 178.793 46.7447C181.008 39.5727 186.421 32.4477 191.253 30.3437C195.114 28.6617 195.068 28.6617 197.293 30.2897ZM287.817 48.4347C268.098 56.4137 262.037 59.2837 261.082 61.0917C260.235 62.6957 259.842 69.1217 259.832 81.5367L259.817 99.6427L254.754 98.6417C244.499 96.6137 233.043 101.832 230.927 109.494C226.654 124.971 251.408 134.048 265.003 121.989L269.317 118.163L269.817 91.9407L270.317 65.7187L289.817 57.9247C300.542 53.6387 309.654 50.3376 310.067 50.5896C310.885 51.0896 311.129 78.2857 310.322 79.0917C310.05 79.3637 307.616 79.1337 304.912 78.5797C297.506 77.0627 289.791 79.0847 284.773 83.8577C281.248 87.2107 280.817 88.1387 280.817 92.3717C280.817 100.281 285.192 104.662 295.369 106.943C302.536 108.549 309.625 106.76 315.003 101.989L319.317 98.1617L319.61 69.6607C319.869 44.5067 319.714 40.9707 318.289 39.5457C317.401 38.6577 315.919 37.9727 314.996 38.0237C314.072 38.0747 301.842 42.7597 287.817 48.4347ZM98.0443 80.7137C99.7713 82.4407 99.9273 83.0937 98.9053 84.3247C95.6673 88.2267 85.5513 88.8097 81.6933 85.3187C79.1343 83.0027 79.3333 81.7047 82.5673 79.6297C86.3833 77.1817 95.1253 77.7937 98.0443 80.7137ZM306.867 89.4567C310.277 91.2197 310.589 92.9217 307.941 95.3187C305.376 97.6397 299.757 98.3957 295.505 96.9927C290.746 95.4217 289.145 93.4457 290.91 91.3187C293.843 87.7847 301.832 86.8527 306.867 89.4567ZM48.0443 100.714C50.6413 103.311 49.4383 105.241 44.1293 106.993C38.0723 108.992 29.8173 106.29 29.8173 102.308C29.8173 97.8547 43.9493 96.6187 48.0443 100.714ZM256.913 109.647C260.296 111.645 260.536 112.97 257.941 115.319C255.376 117.64 249.757 118.396 245.505 116.993C240.746 115.422 239.145 113.446 240.91 111.319C243.921 107.691 252.147 106.832 256.913 109.647ZM163.346 126.828C164.835 130.622 165.887 134.206 165.685 134.794C165.482 135.382 162.617 138.023 159.317 140.664C147.571 150.065 140.494 164.8 140.376 180.1C140.312 188.414 141.528 191.133 147.202 195.369C150.974 198.185 158.66 198.185 162.432 195.369C167.232 191.786 168.71 188.783 169.696 180.614C170.695 172.342 174.926 163.64 176.96 165.674C179.943 168.657 191.052 222.27 189.517 226.271C189.024 227.556 187.574 227.927 183.098 227.914C162.731 227.852 141.113 215.834 133.922 200.573C125.379 182.446 127.681 163.663 140.994 142.874C145.048 136.544 158.706 119.931 159.856 119.931C160.288 119.931 161.858 123.035 163.346 126.828ZM211.228 162.181C215.896 165.359 219.436 169.856 222.448 176.435C224.786 181.543 225.006 183.036 224.635 191.273C224.307 198.536 223.66 201.652 221.505 206.333C220.011 209.58 218.617 212.055 218.408 211.833C218.199 211.612 216.852 205.005 215.416 197.151C213.251 185.32 210.91 175.364 207.074 161.681C206.428 159.374 207.251 159.473 211.228 162.181ZM101.567 173.991C97.6733 176.304 99.9803 196.265 105.735 210.069C117.07 237.254 148.91 256.931 181.562 256.931H192.05L191.657 266.706C191.358 274.153 190.786 277.307 189.257 279.956C182.215 292.145 162.817 286.119 162.817 271.742C162.817 266.74 158.925 259.906 154.817 257.694C148.385 254.231 140.474 256.491 135.443 263.23C133.833 265.387 133.475 267.311 133.596 273.168C133.853 285.559 138.34 295.509 147.539 304.088C170.083 325.113 207.07 316.927 217.682 288.563C220.558 280.876 222.115 267.895 221.417 257.431L220.817 248.431L227.445 243.984C243.221 233.398 253.657 213.54 254.137 193.196C254.31 185.87 254.206 185.491 251.635 184.026C249.192 182.633 248.783 182.652 247.032 184.236C245.551 185.577 244.976 187.86 244.524 194.203C242.696 219.807 226.715 238.91 202.153 244.852C186.451 248.651 175.22 248.293 158.692 243.464C145.517 239.615 129.7 229.022 122.615 219.303C115.08 208.966 109.83 194.482 109.802 183.951C109.779 175.107 106.455 171.087 101.567 173.991ZM58.4973 218.412C44.2973 224.126 32.0343 229.336 31.2473 229.989C30.0983 230.943 29.8173 234.944 29.8173 250.374V269.572L21.5043 269.136C14.5643 268.772 12.5403 269.033 9.25434 270.718C3.68634 273.572 0.737339 277.111 0.125339 281.67C-0.591661 287.016 1.76434 291.229 7.27534 294.459C15.9613 299.55 27.2103 298.76 34.3903 292.556L38.3173 289.163L38.8173 262.824L39.3173 236.485L46.3173 233.567C50.1673 231.961 59.2803 228.284 66.5673 225.395L79.8173 220.142V235.116V250.09L76.7143 249.408C66.4893 247.163 56.6103 250.142 52.1063 256.829C42.0143 271.812 69.7683 285.571 84.3163 272.798C89.4943 268.252 89.9513 265.105 89.6153 236.314C89.3363 212.368 89.1953 210.678 87.3763 209.349C86.3083 208.569 85.1833 207.951 84.8763 207.976C84.5683 208.001 72.6983 212.697 58.4973 218.412ZM75.2273 259.329C80.0673 261.351 80.5973 262.864 77.4213 265.595C74.1623 268.398 67.3213 268.76 62.7053 266.373C58.8483 264.379 59.2503 261.967 63.8203 259.683C68.0503 257.568 70.8073 257.482 75.2273 259.329ZM25.4323 279.553C30.1883 281.809 30.5493 282.905 27.4213 285.595C24.1623 288.398 17.3213 288.76 12.7053 286.373C8.84834 284.379 9.25034 281.967 13.8203 279.683C18.1723 277.507 21.0533 277.475 25.4323 279.553Z" fill="url(#paint0_linear_7_43)"/>
<defs>
<linearGradient id="paint0_linear_7_43" x1="159.857" y1="0" x2="159.857" y2="315.898" gradientUnits="userSpaceOnUse">
<stop stop-color="#D7285D"/>
<stop offset="0.682292" stop-color="#6047D9" stop-opacity="0.96"/>
<stop offset="1" stop-color="#8EC3E1"/>
</linearGradient>
</defs>
</svg>
