<svg width="149" height="44" viewBox="0 0 149 44" fill="none" xmlns="http://www.w3.org/2000/svg">
<path fill-rule="evenodd" clip-rule="evenodd" d="M44.7163 0.567109C44.0491 1.34206 44.0491 42.6579 44.7163 43.4329C45.0483 43.818 45.6927 43.9925 46.7851 43.9925C49.9676 43.9925 49.8219 45.0493 49.8219 22C49.8219 -1.04934 49.9676 0.00745616 46.7851 0.00745616C45.6927 0.00745616 45.0483 0.18195 44.7163 0.567109ZM111.124 0.536724C110.422 1.01882 110.353 2.93015 110.353 22.0504C110.353 42.0121 110.395 43.0582 111.205 43.5136C112.329 44.1462 114.21 44.1222 115.17 43.4633C115.872 42.9812 115.941 41.0698 115.941 21.9496C115.941 1.98794 115.899 0.94185 115.089 0.486373C113.965 -0.146202 112.083 -0.122184 111.124 0.536724ZM12.2101 6.5349L11.175 6.98517V22.0098V37.0342L12.3582 37.516C13.8551 38.1255 15.6292 37.7053 16.3188 36.5776C16.6172 36.09 16.7406 30.6063 16.6587 21.5008L16.5297 7.19034L15.4303 6.63734C14.0977 5.96686 13.5543 5.94949 12.2101 6.5349ZM56.1912 8.76107C55.4611 9.09385 55.4075 10.1593 55.5197 22.1377L55.6422 35.1527L56.904 35.4285C57.7603 35.6157 58.5454 35.5966 59.3486 35.3691L60.5312 35.0343V22.0165C60.5312 9.44197 60.5005 8.98823 59.6307 8.69885C58.4257 8.29807 57.1559 8.32093 56.1912 8.76107ZM100.05 8.87769C99.5348 9.26342 99.3881 11.7416 99.2936 21.6826C99.1641 35.2566 99.1874 35.3842 101.808 35.5439C104.839 35.7286 104.766 36.0654 104.766 22C104.766 10.8483 104.677 9.25358 104.034 8.85396C103.076 8.259 100.859 8.27202 100.05 8.87769ZM22.756 9.74581C21.8453 10.4273 21.5854 32.7804 22.4757 33.8644C23.2189 34.769 25.3286 34.9799 26.5816 34.2753C27.4304 33.7981 27.4719 33.2257 27.4719 22C27.4719 10.9603 27.4188 10.1955 26.6202 9.74639C25.5279 9.13205 23.5769 9.13147 22.756 9.74581ZM122.319 9.78256C121.602 10.2751 121.528 11.4245 121.528 22.0504C121.528 33.2263 121.57 33.7981 122.418 34.2753C123.673 34.9808 125.783 34.7693 126.516 33.8644C127.359 32.8241 127.359 11.1762 126.516 10.1356C125.759 9.20005 123.45 9.00588 122.319 9.78256ZM66.8894 11.8224C66.2044 12.2926 66.1187 13.4316 66.1187 22.0504C66.1187 31.0789 66.1774 31.7821 66.9704 32.228C68.0949 32.8606 69.976 32.8365 70.9356 32.1776C71.6206 31.7074 71.7062 30.5684 71.7062 21.9496C71.7062 12.9211 71.6476 12.2179 70.8546 11.772C69.7301 11.1394 67.849 11.1635 66.8894 11.8224ZM89.2836 11.6056C88.5321 11.8776 88.4687 12.687 88.4687 22.0043C88.4687 31.6973 88.5055 32.12 89.3693 32.4074C90.578 32.8093 92.3455 32.7862 93.0319 32.3596C93.8327 31.8619 93.8327 12.1381 93.0319 11.6404C92.3553 11.2199 90.3997 11.2017 89.2836 11.6056ZM0.770609 15.5843C0.106162 16.0403 0 16.9319 0 22.0504C0 27.4345 0.0791556 28.0317 0.851627 28.4661C2.06691 29.1496 3.99599 29.0706 4.86252 28.3017C5.45852 27.773 5.5875 26.6532 5.5875 22C5.5875 17.3468 5.45852 16.227 4.86252 15.6983C3.96759 14.9039 1.84713 14.8449 0.770609 15.5843ZM33.83 15.5843C33.1655 16.0403 33.0594 16.9319 33.0594 22.0504C33.0594 27.4345 33.1385 28.0317 33.911 28.4661C35.0355 29.0987 36.9166 29.0747 37.8763 28.4157C38.5407 27.9597 38.6469 27.0681 38.6469 21.9496C38.6469 16.5655 38.5677 15.9683 37.7952 15.5339C36.6708 14.9013 34.7896 14.9253 33.83 15.5843ZM78.0644 15.5843C77.3999 16.0403 77.2937 16.9319 77.2937 22.0504C77.2937 27.4345 77.3729 28.0317 78.1454 28.4661C79.2699 29.0987 81.151 29.0747 82.1106 28.4157C82.7751 27.9597 82.8812 27.0681 82.8812 21.9496C82.8812 16.5655 82.8021 15.9683 82.0296 15.5339C80.9051 14.9013 79.024 14.9253 78.0644 15.5843ZM133.109 15.5327C132.203 16.2108 131.955 27.0314 132.822 28.0769C133.594 29.0064 136.309 29.2544 137.222 28.4785C137.981 27.8335 138.088 16.4796 137.343 15.6146C136.732 14.9051 134.019 14.8524 133.109 15.5327ZM144.137 15.6983C143.541 16.227 143.412 17.3468 143.412 22C143.412 28.2806 143.676 28.945 146.161 28.945C148.815 28.945 149 28.4887 149 21.9496C149 16.5655 148.921 15.9683 148.148 15.5339C146.933 14.8504 145.004 14.9294 144.137 15.6983Z" fill="url(#paint0_angular_2_5)"/>
<defs>
<radialGradient id="paint0_angular_2_5" cx="0" cy="0" r="1" gradientUnits="userSpaceOnUse" gradientTransform="translate(96 32) rotate(150.832) scale(24.6221 83.3795)">
<stop offset="0.117401" stop-color="#C0D9F0"/>
<stop offset="0.388523" stop-color="#E861A9"/>
<stop offset="0.549109" stop-color="#DD7575"/>
<stop offset="0.951472" stop-color="#5505FF"/>
</radialGradient>
</defs>
</svg>
