<svg width="49" height="50" viewBox="0 0 49 50" fill="none" xmlns="http://www.w3.org/2000/svg">
<path fill-rule="evenodd" clip-rule="evenodd" d="M22.1171 0.0315137C16.534 0.839629 12.5695 2.55799 8.67052 5.85969C4.37703 9.49534 1.36335 14.8342 0.296924 20.6935C-0.0989748 22.8691 -0.0989748 27.1332 0.296924 29.3088C1.36335 35.1682 4.37703 40.507 8.67052 44.1426C12.005 46.9663 15.6923 48.7576 19.9675 49.631C22.2435 50.096 26.4395 50.1263 28.718 49.6946C38.9061 47.7639 46.5873 40.0228 48.635 29.6226C49.1248 27.1342 49.1212 22.85 48.6269 20.3364C46.8759 11.4328 40.991 4.44756 32.6325 1.35138C30.3341 0.50003 27.9663 0.0806994 25.1105 0.0192958C23.7175 -0.0106228 22.3704 -0.00514047 22.1171 0.0315137ZM30.3957 12.7159C30.5827 12.9068 30.6369 13.3133 30.6369 14.5276C30.6369 16.6783 30.6214 16.6991 29.0147 16.6991C27.5741 16.6991 26.826 16.9316 26.4355 17.5007C26.2358 17.7916 26.1851 18.2699 26.1851 19.8669V21.8683H28.2487C30.8745 21.8683 30.8203 21.8157 30.5412 24.0972C30.433 24.982 30.3412 25.8243 30.3372 25.969C30.3197 26.5978 29.9312 26.7242 28.0163 26.7242H26.1851V31.8254C26.1851 35.0422 26.1265 37.0385 26.0262 37.2296C25.8822 37.504 25.6887 37.5325 23.9664 37.5325C22.9209 37.5325 21.9562 37.4897 21.8227 37.4374C21.6078 37.3533 21.5798 36.73 21.5798 32.0333V26.7242H20.1303C18.2375 26.7242 18.2027 26.6804 18.2027 24.2963C18.2027 21.9155 18.2398 21.8683 20.1145 21.8683H21.5482L21.6133 19.3229C21.6683 17.1694 21.7306 16.6413 22.018 15.8929C22.6329 14.2914 24.0521 13.0328 25.6856 12.6399C26.0026 12.5636 27.1376 12.4942 28.2082 12.4855C29.7873 12.4728 30.1998 12.5162 30.3957 12.7159Z" fill="black"/>
</svg>
