<svg width="49" height="50" viewBox="0 0 49 50" fill="none" xmlns="http://www.w3.org/2000/svg">
<path fill-rule="evenodd" clip-rule="evenodd" d="M22.1171 0.0315141C16.534 0.839629 12.5695 2.55799 8.67052 5.85969C4.37703 9.49534 1.36335 14.8342 0.296924 20.6935C-0.0989748 22.8691 -0.0989748 27.1332 0.296924 29.3088C1.36335 35.1682 4.37703 40.507 8.67052 44.1426C12.005 46.9663 15.6923 48.7576 19.9675 49.631C22.2435 50.096 26.4395 50.1263 28.718 49.6946C38.9061 47.7639 46.5873 40.0228 48.635 29.6226C49.1248 27.1341 49.1212 22.85 48.6269 20.3364C46.8759 11.4328 40.991 4.44756 32.6325 1.35138C30.3341 0.500029 27.9663 0.0806991 25.1105 0.0192956C23.7175 -0.010623 22.3704 -0.00514011 22.1171 0.0315141ZM30.7904 16.1374C33.6481 16.3846 34.4548 16.6738 35.4555 17.8096C36.1983 18.6526 36.3339 19.134 36.6423 22.025C36.9613 25.0146 36.5778 30.3173 35.9549 31.5312C35.6084 32.2064 34.7856 32.9374 33.9465 33.3157C31.6205 34.3641 17.3725 34.3641 15.0465 33.3157C14.2068 32.9371 13.3845 32.2062 13.0374 31.5298C12.542 30.5643 12.3096 28.4795 12.3096 25.0012C12.3096 21.5228 12.542 19.438 13.0374 18.4725C13.3774 17.8097 14.2016 17.0676 14.9936 16.7106C16.76 15.9145 24.8286 15.6218 30.7904 16.1374ZM21.5798 24.9882C21.5798 27.5798 21.6173 29.7004 21.6632 29.7004C21.8057 29.7004 29.1018 25.0897 29.1018 24.9996C29.1018 24.9214 22.0279 20.4466 21.7168 20.3281C21.6385 20.2981 21.5798 22.2913 21.5798 24.9882Z" fill="black"/>
</svg>
