<svg width="49" height="50" viewBox="0 0 49 50" fill="none" xmlns="http://www.w3.org/2000/svg">
<path fill-rule="evenodd" clip-rule="evenodd" d="M22.1171 0.0315137C16.534 0.839629 12.5695 2.55799 8.67052 5.85969C4.37703 9.49534 1.36335 14.8342 0.296924 20.6935C-0.0989748 22.8691 -0.0989748 27.1332 0.296924 29.3088C1.36335 35.1682 4.37703 40.507 8.67052 44.1426C12.005 46.9663 15.6923 48.7576 19.9675 49.631C22.2435 50.096 26.4395 50.1263 28.718 49.6946C38.9061 47.7639 46.5873 40.0228 48.635 29.6226C49.1248 27.1341 49.1212 22.85 48.6269 20.3364C46.8759 11.4328 40.991 4.44756 32.6325 1.35138C30.3341 0.500029 27.9663 0.0806994 25.1105 0.0192958C23.7175 -0.0106228 22.3704 -0.00514047 22.1171 0.0315137ZM31.1364 12.7013C32.6114 13.0934 33.4295 13.5787 34.5601 14.7322C35.6905 15.8859 36.1661 16.7206 36.5503 18.2258C36.881 19.5209 36.881 30.4814 36.5503 31.7765C36.1661 33.2817 35.6905 34.1165 34.5601 35.2701C33.4295 36.4236 32.6114 36.9089 31.1364 37.301C29.8435 37.6447 19.1242 37.6379 17.8253 37.2927C15.8389 36.7646 13.7986 35.1165 13.0087 33.4014C12.2645 31.7861 12.2158 31.2698 12.2158 25.0012C12.2158 18.7325 12.2645 18.2162 13.0087 16.6009C13.7839 14.918 15.8273 13.2475 17.7593 12.7175C18.9814 12.3821 29.8859 12.3689 31.1364 12.7013ZM18.0499 15.2338C16.5164 15.7892 15.4122 16.9426 14.9079 18.5157C14.6911 19.1919 14.6641 20.0937 14.7034 25.3201L14.7487 31.3452L15.1288 32.1284C15.6134 33.127 16.5332 34.0655 17.5119 34.5601L18.2794 34.9479H24.4965H30.7136L31.4812 34.5601C32.4598 34.0655 33.3796 33.127 33.8642 32.1284L34.2443 31.3452V25.0012V18.6572L33.8642 17.874C33.3796 16.8754 32.4598 15.9368 31.4812 15.4422L30.7136 15.0544L24.7268 15.0192C19.5769 14.9889 18.6435 15.0188 18.0499 15.2338ZM31.8755 17.2541C32.1812 17.4468 32.5003 18.4363 32.403 18.8887C32.0742 20.4159 29.8982 20.4836 29.4125 18.9816C28.9501 17.5524 30.5592 16.4239 31.8755 17.2541ZM27.1338 19.1586C28.5565 19.8384 29.4482 20.7275 30.1403 22.1565C30.6934 23.2985 30.7136 23.3987 30.7136 25.0012C30.7136 26.6036 30.6934 26.7039 30.1403 27.8458C29.4498 29.2715 28.561 30.1595 27.1338 30.8494C26.1851 31.308 25.9877 31.3452 24.4965 31.3452C23.0053 31.3452 22.8079 31.308 21.8592 30.8494C20.4321 30.1595 19.5432 29.2715 18.8528 27.8458C18.3001 26.705 18.2794 26.6024 18.2794 25.0093C18.2794 23.4814 18.3158 23.2779 18.7611 22.319C19.573 20.5705 20.7199 19.5279 22.5757 18.8517C23.1521 18.6417 23.692 18.5834 24.7268 18.6199C25.8934 18.6611 26.2678 18.7449 27.1338 19.1586ZM23.1149 21.2898C22.3615 21.5322 21.0765 22.8899 20.8455 23.6879C20.3879 25.2682 20.7098 26.6302 21.8049 27.7477C22.9 28.8652 24.2348 29.1937 25.7835 28.7267C26.6268 28.4725 27.8984 27.1749 28.1476 26.3144C28.6052 24.7341 28.2833 23.3721 27.1881 22.2546C26.1004 21.1446 24.6411 20.7991 23.1149 21.2898Z" fill="black"/>
</svg>
