<svg width="174" height="28" viewBox="0 0 174 28" fill="none" xmlns="http://www.w3.org/2000/svg">
<path d="M16.5234 19.9844C16.5234 22.7031 15.6797 24.7188 13.9922 26.0312C12.3047 27.3438 10.0312 28 7.17188 28C6.09375 28 4.96875 27.8711 3.79688 27.6133C2.64844 27.3555 1.60547 27.0625 0.667969 26.7344V22.1289C2.05078 22.6914 3.19922 23.1133 4.11328 23.3945C4.62891 23.5352 5.17969 23.6641 5.76562 23.7812C6.35156 23.8984 6.91406 23.957 7.45312 23.957C8.03906 23.957 8.57812 23.9102 9.07031 23.8164C9.58594 23.7227 10.043 23.5117 10.4414 23.1836C10.8164 22.9492 11.1562 22.6094 11.4609 22.1641C11.7656 21.7188 11.918 21.1562 11.918 20.4766C11.918 19.7969 11.7773 19.2344 11.4961 18.7891C11.2148 18.3203 10.8984 17.9219 10.5469 17.5938C9.70312 16.8672 8.78906 16.2461 7.80469 15.7305C7.125 15.3555 6.36328 14.9336 5.51953 14.4648C4.67578 13.9727 3.87891 13.4219 3.12891 12.8125C2.33203 12.1797 1.6875 11.4297 1.19531 10.5625C0.703125 9.69531 0.457031 8.72266 0.457031 7.64453C0.457031 5.13672 1.21875 3.28516 2.74219 2.08984C4.26562 0.894531 6.23438 0.296875 8.64844 0.296875C9.25781 0.296875 9.86719 0.355469 10.4766 0.472656C11.0859 0.566406 11.6367 0.671875 12.1289 0.789062C13.0195 1.04688 13.9922 1.35156 15.0469 1.70312V6.13281C13.7812 5.47656 12.5977 4.99609 11.4961 4.69141C10.418 4.38672 9.41016 4.23438 8.47266 4.23438C7.48828 4.23438 6.65625 4.51562 5.97656 5.07812C5.32031 5.61719 4.99219 6.39063 4.99219 7.39844C4.99219 7.79688 5.09766 8.14844 5.30859 8.45312C5.51953 8.75781 5.77734 9.0625 6.08203 9.36719C6.38672 9.71875 6.73828 10.0352 7.13672 10.3164C7.55859 10.5977 8.02734 10.8672 8.54297 11.125C10.1836 12.0156 11.4258 12.7422 12.2695 13.3047C13.1367 13.8438 13.8516 14.3828 14.4141 14.9219C15.0469 15.5078 15.5391 16.1992 15.8906 16.9961C16.2656 17.793 16.4766 18.7891 16.5234 19.9844ZM45.8438 14.1836C45.8438 12.7773 45.668 11.4297 45.3164 10.1406C44.9648 8.82812 44.4844 7.71484 43.875 6.80078C43.2891 5.95703 42.5859 5.32422 41.7656 4.90234C40.9453 4.45703 40.125 4.23438 39.3047 4.23438C38.4844 4.23438 37.6523 4.45703 36.8086 4.90234C35.9883 5.32422 35.2969 5.95703 34.7344 6.80078C34.1016 7.71484 33.6094 8.82812 33.2578 10.1406C32.9062 11.4297 32.7305 12.7773 32.7305 14.1836C32.7305 15.5898 32.9062 16.9375 33.2578 18.2266C33.6094 19.4922 34.1016 20.582 34.7344 21.4961C35.2969 22.3633 35.9883 23.0078 36.8086 23.4297C37.6523 23.8516 38.4844 24.0625 39.3047 24.0625C40.125 24.0625 40.9453 23.8516 41.7656 23.4297C42.5859 23.0078 43.2891 22.3633 43.875 21.4961C44.4844 20.582 44.9648 19.4922 45.3164 18.2266C45.668 16.9375 45.8438 15.5898 45.8438 14.1836ZM50.4141 14.1836C50.4141 16.0586 50.1562 17.8633 49.6406 19.5977C49.1484 21.332 48.4102 22.8203 47.4258 24.0625C46.4414 25.3281 45.2227 26.3008 43.7695 26.9805C42.3398 27.6602 40.8516 28 39.3047 28C37.7344 28 36.2227 27.6602 34.7695 26.9805C33.3398 26.3008 32.1328 25.3281 31.1484 24.0625C30.1641 22.8203 29.4141 21.332 28.8984 19.5977C28.4062 17.8633 28.1602 16.0586 28.1602 14.1836C28.1602 12.3086 28.4062 10.5039 28.8984 8.76953C29.4141 7.03516 30.1641 5.53516 31.1484 4.26953C32.1328 3.02734 33.3398 2.05469 34.7695 1.35156C36.2227 0.648438 37.7344 0.296875 39.3047 0.296875C40.8516 0.296875 42.3398 0.648438 43.7695 1.35156C45.2227 2.05469 46.4414 3.02734 47.4258 4.26953C48.4102 5.53516 49.1484 7.03516 49.6406 8.76953C50.1562 10.5039 50.4141 12.3086 50.4141 14.1836ZM72.4922 23.9219C73.2891 23.9688 73.9805 23.8164 74.5664 23.4648C75.1523 23.1133 75.6094 22.6562 75.9375 22.0938C76.3125 21.3906 76.582 20.6406 76.7461 19.8438C76.9336 19.0234 77.0273 18.1211 77.0273 17.1367V0.753906H81.5625V17.418C81.5625 18.5195 81.457 19.6797 81.2461 20.8984C81.0586 22.1172 80.625 23.2422 79.9453 24.2734C79.2891 25.3281 78.3516 26.2188 77.1328 26.9453C75.9141 27.6484 74.3672 28 72.4922 28C70.6172 28 69.0703 27.6484 67.8516 26.9453C66.6328 26.2188 65.6953 25.3281 65.0391 24.2734C64.3594 23.2422 63.9258 22.1172 63.7383 20.8984C63.5508 19.6562 63.457 18.4961 63.457 17.418V0.753906H67.9922V17.1367C67.9922 18.1211 68.0742 19.0234 68.2383 19.8438C68.4023 20.6406 68.6719 21.3906 69.0469 22.0938C69.375 22.6562 69.8203 23.1016 70.3828 23.4297C70.9688 23.7578 71.6719 23.9219 72.4922 23.9219ZM113.203 27.5781H108.527L99.8789 9.26172V27.5781H95.5195V0.753906H100.16L108.844 19.1758V0.753906H113.203V27.5781ZM131.66 4.83203V23.5352H133.488C133.84 23.5352 134.332 23.5234 134.965 23.5C135.621 23.4531 136.125 23.3711 136.477 23.2539C136.922 23.1367 137.402 22.8789 137.918 22.4805C138.457 22.082 138.973 21.5195 139.465 20.793C139.957 20.043 140.355 19.1406 140.66 18.0859C140.988 17.0078 141.152 15.7188 141.152 14.2188C141.152 12.6719 140.988 11.3711 140.66 10.3164C140.355 9.26172 139.957 8.35938 139.465 7.60938C138.973 6.88281 138.457 6.32031 137.918 5.92188C137.402 5.5 136.922 5.23047 136.477 5.11328C136.125 5.01953 135.621 4.94922 134.965 4.90234C134.332 4.85547 133.84 4.83203 133.488 4.83203H131.66ZM127.16 0.753906H133.207C133.98 0.753906 134.789 0.8125 135.633 0.929688C136.5 1.02344 137.262 1.14062 137.918 1.28125C139.02 1.58594 140.027 2.10156 140.941 2.82812C141.879 3.53125 142.699 4.41016 143.402 5.46484C144.105 6.47266 144.656 7.71484 145.055 9.19141C145.477 10.6445 145.688 12.3203 145.688 14.2188C145.688 16.0703 145.477 17.7344 145.055 19.2109C144.656 20.6875 144.105 21.9297 143.402 22.9375C142.699 23.9922 141.879 24.8828 140.941 25.6094C140.027 26.3125 139.02 26.8164 137.918 27.1211C137.262 27.2617 136.5 27.3789 135.633 27.4727C134.789 27.543 133.98 27.5781 133.207 27.5781H127.16V0.753906ZM173.707 19.9844C173.707 22.7031 172.863 24.7188 171.176 26.0312C169.488 27.3438 167.215 28 164.355 28C163.277 28 162.152 27.8711 160.98 27.6133C159.832 27.3555 158.789 27.0625 157.852 26.7344V22.1289C159.234 22.6914 160.383 23.1133 161.297 23.3945C161.812 23.5352 162.363 23.6641 162.949 23.7812C163.535 23.8984 164.098 23.957 164.637 23.957C165.223 23.957 165.762 23.9102 166.254 23.8164C166.77 23.7227 167.227 23.5117 167.625 23.1836C168 22.9492 168.34 22.6094 168.645 22.1641C168.949 21.7188 169.102 21.1562 169.102 20.4766C169.102 19.7969 168.961 19.2344 168.68 18.7891C168.398 18.3203 168.082 17.9219 167.73 17.5938C166.887 16.8672 165.973 16.2461 164.988 15.7305C164.309 15.3555 163.547 14.9336 162.703 14.4648C161.859 13.9727 161.062 13.4219 160.312 12.8125C159.516 12.1797 158.871 11.4297 158.379 10.5625C157.887 9.69531 157.641 8.72266 157.641 7.64453C157.641 5.13672 158.402 3.28516 159.926 2.08984C161.449 0.894531 163.418 0.296875 165.832 0.296875C166.441 0.296875 167.051 0.355469 167.66 0.472656C168.27 0.566406 168.82 0.671875 169.312 0.789062C170.203 1.04688 171.176 1.35156 172.23 1.70312V6.13281C170.965 5.47656 169.781 4.99609 168.68 4.69141C167.602 4.38672 166.594 4.23438 165.656 4.23438C164.672 4.23438 163.84 4.51562 163.16 5.07812C162.504 5.61719 162.176 6.39063 162.176 7.39844C162.176 7.79688 162.281 8.14844 162.492 8.45312C162.703 8.75781 162.961 9.0625 163.266 9.36719C163.57 9.71875 163.922 10.0352 164.32 10.3164C164.742 10.5977 165.211 10.8672 165.727 11.125C167.367 12.0156 168.609 12.7422 169.453 13.3047C170.32 13.8438 171.035 14.3828 171.598 14.9219C172.23 15.5078 172.723 16.1992 173.074 16.9961C173.449 17.793 173.66 18.7891 173.707 19.9844Z" fill="url(#paint0_linear_4_23)"/>
<defs>
<linearGradient id="paint0_linear_4_23" x1="110" y1="-3" x2="110" y2="63" gradientUnits="userSpaceOnUse">
<stop stop-color="#85F2E5"/>
<stop offset="0.409091" stop-color="#576ACA"/>
<stop offset="0.424242" stop-color="#D358C7" stop-opacity="0.94"/>
<stop offset="0.53125" stop-color="#58C5D3" stop-opacity="0"/>
<stop offset="0.921875" stop-color="#A7539E" stop-opacity="0.94"/>
</linearGradient>
</defs>
</svg>
