<svg width="95" height="98" viewBox="0 0 95 98" fill="none" xmlns="http://www.w3.org/2000/svg">
<path fill-rule="evenodd" clip-rule="evenodd" d="M50.4953 96.4616C52.5973 95.7366 53.868 94.8058 61.8684 88.1326C65.6603 84.9696 73.7699 78.2137 79.8893 73.1198C86.009 68.0259 91.3651 63.3423 91.7922 62.7121C93.4563 60.2554 93.9194 58.7378 93.9503 55.6405C93.9763 53.0149 93.8946 52.5618 93.061 50.71C91.8593 48.04 90.1103 46.0929 87.8859 44.9483C84.3383 43.1226 81.0982 43.0337 77.5988 44.6662C76.7007 45.0851 72.2995 48.5186 66.8978 53.014C61.8514 57.2138 55.4174 62.5692 52.6002 64.9151C49.7831 67.2607 47.3458 69.2271 47.1844 69.2847C47.0227 69.3421 45.9426 68.5737 44.7836 67.5771C42.6788 65.7664 30.3506 55.2386 22.3358 48.407C20.0017 46.4174 17.366 44.4093 16.4787 43.9444C15.0159 43.178 14.5638 43.0968 11.6279 43.0739C8.6658 43.0509 8.2453 43.1211 6.68777 43.8987C4.31634 45.0825 2.2078 47.2766 1.05097 49.7644C0.184993 51.6259 0.0926924 52.0931 0.0732073 54.7114C0.0545997 57.2421 0.152832 57.8296 0.861018 59.4215C1.30588 60.4219 1.99825 61.6914 2.39959 62.2432C3.18886 63.3283 38.7079 93.7903 40.8343 95.2054C43.53 96.9999 47.4551 97.51 50.4953 96.4616ZM50.2579 54.4695C52.3934 53.7524 54.3309 52.3624 61.4965 46.4065C65.8104 42.8209 71.0048 38.5033 73.0397 36.8121C75.0745 35.1209 79.9652 31.0561 83.908 27.7788C87.8507 24.5018 91.4095 21.3753 91.8161 20.8313C92.2229 20.2877 92.9292 19.0293 93.3858 18.0349C94.1092 16.4592 94.2189 15.8557 94.2383 13.3357C94.2584 10.7119 94.1747 10.2539 93.3344 8.38651C92.1924 5.84964 90.1666 3.6703 87.8316 2.46713C86.2156 1.63429 85.8244 1.56168 82.8405 1.54182C79.9122 1.52233 79.4475 1.59837 77.9785 2.33581C76.7571 2.9492 58.55 17.766 47.7603 26.9271C47.4267 27.2106 46.9657 26.9571 45.4435 25.6528C23.6064 6.94243 18.4656 2.66232 16.7655 1.77596C15.0065 0.858763 14.6455 0.783621 11.9095 0.765413C9.18015 0.747249 8.80703 0.819338 7.03715 1.70544C0.438408 5.00954 -1.77201 13.1795 2.26687 19.3381C3.3817 21.0384 3.72643 21.3396 36.4587 49.2324C41.8964 53.8663 43.0377 54.4638 46.7249 54.6079C48.2624 54.6681 49.8523 54.6056 50.2579 54.4695Z" fill="url(#paint0_linear_9_59)"/>
<defs>
<linearGradient id="paint0_linear_9_59" x1="46.6806" y1="96.9989" x2="47.3194" y2="1.00107" gradientUnits="userSpaceOnUse">
<stop stop-color="#E0497F"/>
<stop offset="0.494792" stop-color="#A266DD" stop-opacity="0.831771"/>
<stop offset="1" stop-color="#85D6EF" stop-opacity="0.66"/>
</linearGradient>
</defs>
</svg>
